<svg xmlns="http://www.w3.org/2000/svg" version="1.1" viewBox="0 0 64 64"><g stroke-width=".93069" transform="matrix(1.0745 0 0 1.0745 -1.6501 -1.7269)"><path d="m45.667 51.459h-30.292c-3.1356 0-5.7579-0.64385-7.8482-1.941-2.0997-1.297-3.6207-2.837-4.5727-4.628-0.9424-1.801-1.4183-3.49-1.4183-5.077v-16.611c0-1.7917 0.60657-3.5275 1.829-5.2259 1.2225-1.6891 2.6783-3.0702 4.3767-4.1247s3.1168-1.5864 4.2648-1.5864h33.446v9.1827h-26.176c-0.97984 0-1.9598 0.2986-2.9396 0.90518-0.9705 0.59724-1.7731 1.3439-2.389 2.2397-0.62526 0.88662-0.93323 1.7265-0.93323 2.5103v9.1828c0 0.8679 0.23331 1.7264 0.70925 2.5662 0.47598 0.83988 1.1572 1.5304 2.053 2.0904 0.89595 0.5506 1.8758 0.83052 2.949 0.83052h26.942z" fill="#1a91cd"/><path d="m60.89 51.723h-11.254v-25.776h11.255z" fill="#fff"/><path d="m55.182 11.055c3.2683 0 5.9177 2.6495 5.9177 5.9177 0 3.2683-2.6495 5.9177-5.9177 5.9177s-5.9177-2.6494-5.9177-5.9177c0-3.2682 2.6495-5.9177 5.9177-5.9177" fill-rule="evenodd" fill="#fff"/></g></svg>
