<svg xmlns="http://www.w3.org/2000/svg" height="40" width="600" version="1.1" viewBox="0 0 600 39.999999"><g transform="matrix(1.0269 0 0 1.0264 0 -1.0564)" stroke-width=".97403"><path d="m41.677 38.837h-28.607c-2.9612 0-5.4376-0.608-7.4116-1.8331-1.9832-1.225-3.4197-2.68-4.3189-4.372-0.89017-1.701-1.3395-3.296-1.3395-4.794v-15.687c0-1.692 0.57293-3.3312 1.7272-4.9352 1.1547-1.5955 2.5297-2.8997 4.1333-3.8956 1.604-0.9956 2.9435-1.4983 4.0275-1.4983h31.585v8.6721h-24.72c-0.9256 0-1.8508 0.282-2.776 0.85493-0.91654 0.564-1.6747 1.2688-2.2564 2.1151-0.5904 0.8372-0.88107 1.6305-0.88107 2.3705v8.6721c0 0.81933 0.2204 1.6301 0.66973 2.4233 0.44947 0.79333 1.0927 1.4453 1.9389 1.9741 0.84586 0.52 1.7715 0.78427 2.7848 0.78427h25.444zm51.334-23.258c0 1.6213-0.458 3.1287-1.3659 4.5297-0.91653 1.4015-2.1063 2.5119-3.5781 3.3312-1.4717 0.81987-2.9785 1.2249-4.5032 1.2249h-26.086c-1.8595 0-3.516-0.40507-4.9613-1.2159-1.4453-0.802-2.6264-1.7892-3.5516-2.9525-0.91653-1.1633-1.6219-2.3176-2.0889-3.4636-0.47587-1.1368-0.7136-2.0269-0.7136-2.6701l0.053-12.593h10.258v8.8835c0 0.652 0.22907 1.4011 0.68747 2.2473 0.44933 0.83707 1.0575 1.5684 1.8067 2.1765 0.74907 0.60813 1.5597 0.91653 2.4412 0.91653h15.846c1.0488 0 1.9919-0.28187 2.8291-0.85493 0.83707-0.56387 1.4804-1.2513 1.9388-2.062 0.44947-0.8108 0.6784-1.5247 0.6784-2.1416l0.053-9.1664h10.258zm-14.232 23.258h-18.172v-8.8833h18.172zm66.106-5.9663c0 0.6784-0.1852 1.4717-0.5552 2.406-0.3704 0.9252-0.96947 1.7451-1.8067 2.4499-0.83747 0.70493-1.8951 1.0576-3.1903 1.0576h-41.876v-22.791h32.431c0.48493 0 1.0931-0.2468 1.8331-0.7404 0.7404-0.48453 1.1105-1.172 1.1105-2.0533 0-0.61693-0.29973-1.2601-0.89013-1.9212-0.5904-0.66107-1.4101-0.99587-2.4412-0.99587h-32.036v-8.5124h38.997c1.1543 0 2.256 0.36133 3.3048 1.0927 1.0488 0.73133 1.8947 1.6215 2.5292 2.6616 0.64333 1.0397 0.9608 1.9917 0.9608 2.8555v5.2436c0 0.9604-0.13227 1.7447-0.38774 2.3441-0.26466 0.60813-0.626 1.1191-1.0753 1.5511-0.44933 0.4316-1.1985 1.0488-2.2387 1.8596 1.6305 1.1191 2.9349 2.1415 3.8956 3.0844 0.9604 0.9344 1.4453 1.9563 1.4453 3.058zm-11.052-5.3935c0-1.7011-0.8636-2.5469-2.5821-2.5469h-23.17v4.9175h23.583c0.6524 0 1.1812-0.22907 1.5776-0.69613 0.39654-0.45853 0.5904-1.0224 0.5904-1.6744zm66.406 0.10547c0 2.0448-0.57306 3.9308-1.7187 5.6493-1.1455 1.7272-2.5379 3.0844-4.1771 4.0981-1.6483 1.0045-3.0936 1.5068-4.3536 1.5068h-28.45c-2.3445 0-4.4153-0.608-6.2219-1.8331-1.8067-1.2249-3.1995-2.7408-4.1685-4.5652-0.9784-1.824-1.4629-3.5781-1.4629-5.2437v-13.89c0-1.5156 0.3348-2.9612 0.99587-4.3445 0.66107-1.3837 1.5333-2.6177 2.6173-3.6839 1.084-1.0667 2.2651-1.9037 3.5516-2.5293 1.2779-0.6168 2.5115-0.9256 3.6748-0.9256h28.01c1.2601 0 2.8025 0.41427 4.6443 1.2428 1.8417 0.81973 3.4809 2.1679 4.9088 4.0187 1.4276 1.8596 2.1416 4.2565 2.1416 7.1827zm-10.629-3.4723v-7.6055c0-1.5949-0.5464-2.9523-1.6304-4.0713-1.084-1.1195-2.7935-1.6747-5.1379-1.6747h-16.401c-0.63413 0-1.4188 0.238-2.3619 0.72267-0.93386 0.47613-1.7536 1.1195-2.4499 1.9037-0.69614 0.79333-1.0488 1.6391-1.0488 2.5292v7.2443c0.0355 1.7363 0.50226 3.1989 1.4101 4.38 0.8988 1.1899 2.2473 1.7803 4.0361 1.7803h18.26c1.4808 0 2.7409-0.39653 3.772-1.1985 1.0311-0.802 1.5511-2.1328 1.5511-4.0101zm66.899 14.727h-10.945c-0.82853-4.5739-1.6215-8.064-2.3796-10.461-0.75773-2.406-1.7976-3.6045-3.1283-3.6045h-24.174v14.065h-10.628v-22.579h33.004c0.90787 0 1.7273-0.27293 2.4499-0.8108 0.72267-0.53733 1.084-1.2427 1.084-2.0972 0-0.344-0.1232-0.7404-0.36133-1.1985-0.23774-0.44973-0.60814-0.84613-1.1017-1.1724-0.48453-0.32573-1.1104-0.48453-1.8681-0.48453h-33.2v-8.6729h40.513c2.4412 0 4.204 0.6876 5.288 2.0535 1.084 1.3663 1.6305 2.9612 1.6305 4.7856v7.482c0 1.5511-0.27334 2.688-0.8112 3.4197-0.54614 0.73133-1.6479 1.5507-3.3221 2.4672 1.084 0.58173 1.8595 1.0401 2.3176 1.3664 0.44934 0.32573 1.0136 1.0219 1.6833 2.0885 0.67853 1.0661 1.3395 2.6524 1.9919 4.7501 0.652 2.1063 1.3043 4.9704 1.9649 8.6013zm48.833-11.695c0 1.6215-0.2468 3.1373-0.74906 4.5563-0.5024 1.4188-1.2076 2.6615-2.1328 3.7189-0.91654 1.0576-2.0269 1.8948-3.3313 2.5028-1.2956 0.60813-2.6967 0.91653-4.1948 0.91653h-23.918c-1.3924 0-3.0229-0.4936-4.8824-1.4717-1.8596-0.97813-3.4545-2.2824-4.794-3.8951-1.3308-1.6219-2.0005-3.314-2.0005-5.0855v-16.675c0-1.3663 0.5288-2.8203 1.5772-4.3801 1.0489-1.5511 2.4148-2.8641 4.116-3.9216 1.692-1.0579 3.428-1.5867 5.1995-1.5867h33.947v8.6721h-27.875c-1.0488 0-2.0447 0.25547-2.9699 0.75787-0.9344 0.51133-1.6835 1.1633-2.2473 1.9567-0.57293 0.78427-0.85493 1.5949-0.85493 2.4233v8.1785c0 1.2779 0.282 2.3883 0.85493 3.3487 0.56387 0.95213 1.3395 1.6835 2.3176 2.1944 0.9872 0.50227 2.0976 0.75827 3.3313 0.75827h14.206c0.97814 0 1.8157-0.256 2.5119-0.75827 0.69627-0.51093 1.0485-1.2072 1.0485-2.0799 0-0.88093-0.29066-1.542-0.88106-1.9915-0.58174-0.44973-1.2076-0.67-1.8773-0.67h-10.461v-8.6719h13.219c0.12347 0.01787 0.802 0.1588 2.0447 0.41427s2.5292 0.75787 3.8687 1.5069c1.3308 0.74907 2.4941 1.886 3.4636 3.4107 0.97813 1.5247 1.4631 3.4813 1.4631 5.8696" fill="#1a91cd"/><path d="m321.8 38.784h-10.628v-36.962h10.628zm57.169-8.0285c0 1.0663-0.33493 2.3267-0.99586 3.7807-0.66107 1.454-1.7364 2.7319-3.2255 3.8249-1.4896 1.0927-3.3755 1.6392-5.6667 1.6392-2.3532 0-4.0981-0.32627-5.2351-0.96947-1.1368-0.64333-2.3531-1.8331-3.6396-3.5781l-17.99-21.689c-0.57253-0.75827-1.0223-1.2428-1.3572-1.4544-0.3348-0.2204-0.74906-0.32613-1.2513-0.32613-0.32587 0-0.66107 0.1236-1.0047 0.3704-0.3436 0.25547-0.52 0.59907-0.52 1.0488v25.381h-10.47v-29.462c0-0.52 0.16747-1.2253 0.50227-2.1063 0.33493-0.89013 0.89013-1.8067 1.6657-2.7675 0.77547-0.9516 1.7979-1.7624 3.0844-2.4233 1.2779-0.66107 2.8289-0.996 4.6269-0.996 2.2915 0 4.0891 0.3788 5.3847 1.1456 1.2956 0.76693 2.3444 1.604 3.1373 2.4941l18.102 21.31c0.57293 0.7756 1.0488 1.2688 1.4453 1.4804 0.3968 0.2204 0.8636 0.32613 1.4013 0.32613 0.61694 0 1.0047-0.1852 1.1456-0.5552 0.14974-0.3704 0.2204-0.89 0.2204-1.5597v-23.849h10.628zm67.146-19.997h-19.19v28.078h-10.47v-37.015h29.647zm-32.502 28.025h-10.47v-28.105h-19.21v-8.9094h29.664zm78.541 0.0528h-30.457c-2.1151 0-4.0539-0.59933-5.8167-1.8065-1.7624-1.2076-3.1461-2.688-4.1597-4.4417-1.0047-1.7537-1.5069-3.4193-1.5069-5.006v-15.484c0-1.604 0.63453-3.1993 1.8947-4.8029 1.2692-1.604 2.7761-2.9175 4.5211-3.9395 1.7451-1.0223 3.2345-1.5337 4.4772-1.5337h30.246v8.4605h-26.923c-0.66974 0-1.3043 0.16747-1.9033 0.50227-0.5908 0.33493-1.084 0.78467-1.4719 1.3308-0.37907 0.5552-0.57294 1.1368-0.57294 1.7628v2.1679h30.669v8.3547h-30.466v2.97c0 0.72267 0.4232 1.3659 1.2777 1.9124 0.85494 0.5552 1.6748 0.82853 2.4677 0.82853h27.725zm46.444 0h-31.004c-1.6657 0-3.2875-0.59027-4.856-1.7713-1.5776-1.1721-2.8641-2.5557-3.8777-4.142-1.0133-1.5776-1.5247-2.8377-1.5247-3.7633v-27.338h10.258v22.226c0 1.234 0.34347 2.318 1.0223 3.252 0.67853 0.9256 1.4805 1.6304 2.3971 2.0976 0.9252 0.47587 1.6833 0.714 2.2911 0.714h25.293zm45.677 0h-31.004c-1.6656 0-3.2875-0.59027-4.856-1.7713-1.5775-1.1721-2.8641-2.5557-3.8777-4.142-1.0133-1.5776-1.5247-2.8377-1.5247-3.7633v-27.338h10.258v22.226c0 1.234 0.3436 2.318 1.0224 3.252 0.6784 0.9256 1.4804 1.6304 2.3969 2.0976 0.9252 0.47587 1.6833 0.714 2.2912 0.714h25.293z" fill="#fff"/></g></svg>
