<svg id="svg5312" style="enable-background:new" xmlns="http://www.w3.org/2000/svg" viewBox="0 0 600 600" version="1.1" xmlns:xlink="http://www.w3.org/1999/xlink">
 <defs id="defs5314">
  <radialGradient id="radialGradient7932" gradientUnits="userSpaceOnUse" cy="712.83" cx="878.12" gradientTransform="matrix(.55187 -.95587 .84991 .49070 -790.45 789.59)" r="221.82">
   <stop id="stop7926" style="stop-color:#4a6688" offset="0"/>
   <stop id="stop7934" style="stop-color:#2f609a" offset=".54631"/>
   <stop id="stop7928" style="stop-color:#3a516a" offset="1"/>
  </radialGradient>
  <linearGradient id="linearGradient7462" y2="707.08" gradientUnits="userSpaceOnUse" x2="903.12" gradientTransform="matrix(1.1235 0 0 1.1235 -1133.5 -268.83)" y1="494.46" x1="903.12">
   <stop id="stop7705" style="stop-color:#2d3e54" offset="0"/>
   <stop id="stop7707" style="stop-color:#18191b;stop-opacity:.98305" offset="1"/>
  </linearGradient>
  <linearGradient id="linearGradient7466" y2="725.58" gradientUnits="userSpaceOnUse" x2="903.12" gradientTransform="matrix(2.4305 0 0 2.4305 -1898.1 -1163.5)" y1="478.72" x1="903.12">
   <stop id="stop7456" style="stop-color:#1e2938" offset="0"/>
   <stop id="stop7458" style="stop-color:#18191b;stop-opacity:.98305" offset="1"/>
  </linearGradient>
 </defs>
 <circle id="circle7464" cx="300" cy="300" r="300" style="enable-background:new;fill:url(#linearGradient7466)"/>
 <circle id="path7454" style="enable-background:new;fill:url(#linearGradient7462)" cx="-117.45" transform="rotate(-61.071)" cy="407.68" r="138.68"/>
 <path id="path7468" style="enable-background:new;fill:#0091da" d="m51.147 304.65 128.45 213.19 248.85-4.65 120.4-217.84-128.45-213.19-248.85 4.652zm111.84-7.9819 71.391-116.99 137.01 3.3314 65.621 120.32-71.391 116.99-137.01-3.3314z"/>
 <path id="path7639-2" style="enable-background:new;fill:url(#radialGradient7932);fill-rule:evenodd" d="m167.78 93.625-112.33 203.24 55.59-12.29l54.051 8.6539 67.025-109.83-22.044-49.889zm12.662-6.9782 38.441 41.996 19.53 51.136 128.63 3.1285l32.19-44.04 13.38-56.562zm-125.28 224.67 119.84 198.9l17.151-54.291 34.518-42.481-61.606-112.96-54.229-5.854zm145.6 149.81-13.384 56.562 232.17-4.3386-38.441-41.996-19.53-51.136-128.63-3.1285zm224.22-371.34-17.15 54.289-34.518 42.481 61.605 112.96 54.229 5.854 55.678-16.691zm-57.109 326.83 22.043 49.891 42.292 39.873 112.33-203.24-55.59 12.293-54.05-8.6557z"/>
 <path id="path5855" style="font-variant-numeric:normal;font-variant-ligatures:normal;font-variant-caps:normal;font-feature-settings:normal;enable-background:new;fill:#f0f2f4" d="m285.58 108.83v14.594h5.9414c1.5428 0 2.9046-0.30448 4.0859-0.91602 1.1814-0.62544 2.0987-1.4879 2.752-2.5859 0.65324-1.1119 0.98047-2.3773 0.98047-3.7949 0-1.4177-0.32723-2.6754-0.98047-3.7734-0.65324-1.1119-1.5706-1.9724-2.752-2.584-1.1814-0.62544-2.5432-0.93945-4.0859-0.93945zm29.457 1.2305v2.3984h-1.959v1.25h1.959v6.6289c0 1.0146 0.27803 1.8015 0.83399 2.3574 0.55594 0.55595 1.3485 0.83399 2.377 0.83399 0.44476 0 0.86842-0.0624 1.2715-0.1875 0.41696-0.13899 0.765-0.33381 1.043-0.58399l-0.52148-1.0644c-0.20848 0.18068-0.45813 0.32067-0.75 0.41797-0.27797 0.0973-0.56923 0.14453-0.875 0.14453-0.61155 0-1.0844-0.16644-1.418-0.5-0.31967-0.34747-0.48047-0.84677-0.48047-1.5v-6.5469h3.3359v-1.25h-3.3359v-2.3984zm-27.914 0.10351h4.3144c1.2787 0 2.3984 0.25723 3.3574 0.77149 0.959 0.50034 1.7023 1.202 2.2305 2.1055 0.52815 0.88951 0.79102 1.9184 0.79102 3.0859s-0.26287 2.204-0.79102 3.1074c-0.52815 0.88951-1.2715 1.5912-2.2305 2.1055-0.95901 0.50036-2.0788 0.75-3.3574 0.75h-4.3144zm19.203 2.2109c-0.86171 0-1.6806 0.13241-2.459 0.39648-0.77833 0.25018-1.446 0.61144-2.002 1.084l0.66797 1.1055c0.45865-0.40307 1.0072-0.71708 1.6465-0.93946 0.63935-0.23627 1.307-0.35351 2.002-0.35351 1.0146 0 1.7844 0.24965 2.3125 0.75 0.52815 0.48645 0.79297 1.2014 0.79297 2.1465v0.66797h-3.4824c-1.4732 0-2.5494 0.28562-3.2305 0.85547-0.66713 0.56985-1 1.3188-1 2.25 0 0.95901 0.36126 1.7307 1.084 2.3144 0.72273 0.58375 1.6949 0.87696 2.918 0.87696 0.88953 0 1.6536-0.16081 2.293-0.48047 0.65324-0.31967 1.1469-0.76414 1.4805-1.334v1.709h1.418v-6.7969c0-1.4038-0.38206-2.4591-1.1465-3.168-0.76443-0.72272-1.8634-1.084-3.2949-1.084zm20.768 0c-0.86172 0-1.6826 0.13241-2.4609 0.39648-0.77832 0.25018-1.446 0.61144-2.002 1.084l0.66797 1.1055c0.45865-0.40307 1.0071-0.71708 1.6465-0.93946 0.63933-0.23627 1.307-0.35351 2.002-0.35351 1.0146 0 1.7863 0.24965 2.3144 0.75 0.52814 0.48645 0.79102 1.2014 0.79102 2.1465v0.66797h-3.4805c-1.4732 0-2.5514 0.28562-3.2324 0.85547-0.66714 0.56985-1 1.3188-1 2.25 0 0.95901 0.36125 1.7307 1.084 2.3144 0.72273 0.58375 1.6949 0.87696 2.918 0.87696 0.88951 0 1.6556-0.16081 2.2949-0.48047 0.65324-0.31967 1.145-0.76414 1.4785-1.334v1.709h1.418v-6.7969c0-1.4038-0.38206-2.4591-1.1465-3.168-0.76442-0.72272-1.8614-1.084-3.293-1.084zm-21.246 5.9629h3.4394v1.793c-0.29187 0.72273-0.73634 1.2788-1.334 1.668-0.59764 0.37526-1.3145 0.5625-2.1484 0.5625-0.87562 0-1.5565-0.18161-2.043-0.54297-0.48645-0.37527-0.72851-0.88215-0.72851-1.5215 0-1.3065 0.93812-1.959 2.8144-1.959zm20.766 0h3.4395v1.793c-0.29187 0.72273-0.73635 1.2788-1.334 1.668-0.59764 0.37526-1.3126 0.5625-2.1465 0.5625-0.87561 0-1.5565-0.18161-2.043-0.54297-0.48645-0.37527-0.73047-0.88215-0.73047-1.5215 0-1.3065 0.93814-1.959 2.8144-1.959zm-37.848 14.635c-0.30578 0-0.56301 0.10402-0.77149 0.3125s-0.3125 0.45249-0.3125 0.73046c0 0.29188 0.10402 0.54153 0.3125 0.75 0.20848 0.20849 0.46571 0.3125 0.77149 0.3125 0.30576 0 0.563-0.10401 0.77148-0.3125 0.20849-0.20847 0.3125-0.46571 0.3125-0.77148 0-0.27797-0.10401-0.5144-0.3125-0.70898-0.20848-0.20848-0.46572-0.3125-0.77148-0.3125zm53.139 0c-0.30579 0-0.563 0.10402-0.77148 0.3125s-0.3125 0.45249-0.3125 0.73046c0 0.29188 0.10402 0.54153 0.3125 0.75 0.20848 0.20849 0.46569 0.3125 0.77148 0.3125 0.30573 0 0.56295-0.10401 0.77148-0.3125 0.20846-0.20847 0.3125-0.46571 0.3125-0.77148 0-0.27797-0.10404-0.5144-0.3125-0.70898-0.20853-0.20848-0.46575-0.3125-0.77148-0.3125zm-96.006 0.875v14.594h10.32v-1.334h-8.7773v-5.4199h7.5469v-1.3144h-7.5469v-5.1914h8.4648v-1.334zm19.242 3.5449c-0.94511 0-1.7792 0.18723-2.502 0.5625-0.70883 0.36136-1.2649 0.87583-1.668 1.543v-2.0215h-1.418v10.965h1.4805v-5.7539c0-1.237 0.34045-2.2035 1.0215-2.8984 0.69493-0.70883 1.6331-1.0625 2.8144-1.0625 1.0563 0 1.8696 0.29885 2.4395 0.89649 0.56984 0.59764 0.85351 1.4658 0.85351 2.6055v6.2129h1.4805v-6.3574c0-1.5288-0.40849-2.6902-1.2285-3.4824-0.80612-0.80612-1.8975-1.209-3.2734-1.209zm12.98 0c-1.0424 0-1.9805 0.22125-2.8145 0.66601-0.83392 0.44476-1.494 1.0708-1.9805 1.877-0.47255 0.80612-0.70898 1.7234-0.70898 2.752 0 1.0285 0.23643 1.9534 0.70898 2.7734 0.48646 0.80612 1.1466 1.4378 1.9805 1.8965 0.84782 0.44476 1.786 0.66797 2.8145 0.66797 0.9034 0 1.7243-0.18159 2.4609-0.54297 0.75054-0.36136 1.3558-0.88905 1.8145-1.584v1.3965c0 1.3621-0.32724 2.3626-0.98047 3.002-0.65324 0.65324-1.6746 0.98046-3.0644 0.98046-0.83392 0-1.634-0.13241-2.3984-0.39648-0.75054-0.26408-1.3898-0.63292-1.918-1.1055l-0.75 1.127c0.56985 0.52815 1.3056 0.93861 2.209 1.2305 0.91731 0.30578 1.8838 0.45703 2.8984 0.45703 1.8346 0 3.204-0.4501 4.1074-1.3535 0.91732-0.88951 1.375-2.2665 1.375-4.1289v-9.6309h-1.416v2.1055c-0.45866-0.70883-1.0639-1.2517-1.8145-1.627-0.75052-0.37527-1.5922-0.5625-2.5234-0.5625zm21.1 0c-0.94511 0-1.7773 0.18723-2.5 0.5625-0.70883 0.36136-1.2649 0.87583-1.668 1.543v-2.0215h-1.418v10.965h1.4805v-5.7539c0-1.237 0.34044-2.2035 1.0215-2.8984 0.69493-0.70883 1.6331-1.0625 2.8144-1.0625 1.0563 0 1.8696 0.29885 2.4395 0.89649 0.56984 0.59764 0.85351 1.4658 0.85351 2.6055v6.2129h1.4805v-6.3574c0-1.5288-0.41045-2.6902-1.2305-3.4824-0.80612-0.80612-1.8975-1.209-3.2734-1.209zm12.836 0c-1.0146 0-1.9319 0.23643-2.752 0.70898-0.80612 0.47256-1.4454 1.1326-1.918 1.9805-0.45866 0.84781-0.6875 1.8068-0.6875 2.877s0.24402 2.0291 0.73047 2.877c0.48645 0.84781 1.1598 1.5155 2.0215 2.002 0.87562 0.47255 1.8762 0.70899 3.002 0.70899 0.87562 0 1.6757-0.15322 2.3984-0.45899 0.73662-0.30577 1.3475-0.75024 1.834-1.334l-0.83398-0.95899c-0.41696 0.47256-0.91063 0.83381-1.4805 1.084-0.56985 0.23627-1.194 0.35351-1.875 0.35351-1.2092 0-2.2117-0.34803-3.0039-1.043-0.79223-0.70882-1.2291-1.6318-1.3125-2.7715h9.1738l0.0195-0.45899c0-1.0841-0.22885-2.043-0.6875-2.877-0.45866-0.84783-1.0904-1.5079-1.8965-1.9805-0.80612-0.47255-1.7178-0.70898-2.7324-0.70898zm12.582 0c-1.0146 0-1.9319 0.23643-2.752 0.70898-0.80611 0.47256-1.4454 1.1326-1.918 1.9805-0.45866 0.84781-0.6875 1.8068-0.6875 2.877s0.24403 2.0291 0.73047 2.877c0.48646 0.84781 1.1598 1.5155 2.0215 2.002 0.87561 0.47255 1.8762 0.70899 3.002 0.70899 0.87562 0 1.6757-0.15322 2.3984-0.45899 0.73662-0.30577 1.3475-0.75024 1.834-1.334l-0.83398-0.95899c-0.41696 0.47256-0.91063 0.83381-1.4805 1.084-0.56984 0.23627-1.194 0.35351-1.875 0.35351-1.2092 0-2.2097-0.34803-3.002-1.043-0.79222-0.70882-1.231-1.6318-1.3144-2.7715h9.1738l0.0195-0.45899c0-1.0841-0.22885-2.043-0.6875-2.877-0.45865-0.84783-1.0904-1.5079-1.8965-1.9805-0.80612-0.47255-1.7178-0.70898-2.7324-0.70898zm13.855 0c-1.0146 0-1.8695 0.18723-2.5644 0.5625-0.68103 0.37526-1.1955 0.93133-1.543 1.668v-2.1465h-1.418v10.965h1.4805v-5.5859c0-1.2787 0.32528-2.2736 0.97852-2.9824 0.65324-0.70884 1.5574-1.0625 2.7109-1.0625l0.35547 0.0195zm13.865 0c-0.9451 0-1.7792 0.18723-2.502 0.5625-0.70882 0.36136-1.2649 0.87583-1.668 1.543v-2.0215h-1.418v10.965h1.4805v-5.7539c0-1.237 0.34047-2.2035 1.0215-2.8984 0.69491-0.70883 1.633-1.0625 2.8144-1.0625 1.0563 0 1.8696 0.29885 2.4395 0.89649 0.56989 0.59764 0.85547 1.4658 0.85547 2.6055v6.2129h1.4805v-6.3574c0-1.5288-0.41046-2.6902-1.2305-3.4824-0.8061-0.80612-1.8975-1.209-3.2734-1.209zm12.982 0c-1.0424 0-1.9805 0.22125-2.8144 0.66601-0.83398 0.44476-1.494 1.0708-1.9805 1.877-0.47255 0.80612-0.70899 1.7234-0.70899 2.752 0 1.0285 0.23644 1.9534 0.70899 2.7734 0.48645 0.80612 1.1465 1.4378 1.9805 1.8965 0.84782 0.44476 1.786 0.66797 2.8144 0.66797 0.90344 0 1.7224-0.18159 2.459-0.54297 0.75048-0.36136 1.3558-0.88905 1.8145-1.584v1.3965c0 1.3621-0.32721 2.3626-0.98047 3.002-0.65327 0.65324-1.6746 0.98046-3.0644 0.98046-0.83391 0-1.632-0.13241-2.3965-0.39648-0.75054-0.26408-1.3898-0.63292-1.918-1.1055l-0.75195 1.127c0.56982 0.52815 1.3076 0.93861 2.2109 1.2305 0.91735 0.30578 1.8838 0.45703 2.8984 0.45703 1.8346 0 3.202-0.4501 4.1055-1.3535 0.91728-0.88951 1.377-2.2665 1.377-4.1289v-9.6309h-1.418v2.1055c-0.45864-0.70883-1.0639-1.2517-1.8145-1.627-0.75054-0.37527-1.5903-0.5625-2.5215-0.5625zm-77.326 0.084v10.965h1.4805v-10.965zm53.137 0v10.965h1.4805v-10.965zm-29.096 1.1875c1.0702 0 1.9611 0.34045 2.6699 1.0215 0.72272 0.66713 1.1312 1.5428 1.2285 2.627h-7.7754c0.0973-1.0841 0.50015-1.9598 1.209-2.627 0.72273-0.68104 1.6117-1.0215 2.668-1.0215zm12.582 0c1.0702 0 1.9611 0.34045 2.6699 1.0215 0.72272 0.66713 1.1332 1.5428 1.2305 2.627h-7.7774c0.0973-1.0841 0.50015-1.9598 1.209-2.627 0.72272-0.68104 1.6117-1.0215 2.668-1.0215zm-46.371 0.0215c0.80612 0 1.523 0.17401 2.1484 0.52148 0.63934 0.33357 1.131 0.80448 1.4785 1.416 0.36138 0.59764 0.54297 1.2861 0.54297 2.0644 0 0.77831-0.18159 1.4744-0.54297 2.0859-0.34746 0.61154-0.83917 1.09-1.4785 1.4375-0.63934 0.33356-1.3562 0.5-2.1484 0.5-0.79222 0-1.5071-0.16644-2.1465-0.5-0.62544-0.34747-1.1191-0.82596-1.4805-1.4375-0.34747-0.61155-0.52149-1.3076-0.52149-2.0859 0-0.77833 0.17402-1.4724 0.52149-2.084 0.36136-0.61154 0.85503-1.0844 1.4805-1.418 0.63934-0.33357 1.3543-0.5 2.1465-0.5zm87.219 0c0.80616 0 1.5231 0.17401 2.1484 0.52148 0.63936 0.33357 1.133 0.80448 1.4805 1.416 0.36136 0.59764 0.54101 1.2861 0.54101 2.0644 0 0.77831-0.17965 1.4744-0.54101 2.0859-0.34746 0.61154-0.84111 1.09-1.4805 1.4375-0.63929 0.33356-1.3562 0.5-2.1484 0.5-0.79219 0-1.5071-0.16644-2.1465-0.5-0.62546-0.34747-1.1191-0.82596-1.4805-1.4375-0.34746-0.61155-0.52149-1.3076-0.52149-2.0859 0-0.77833 0.17403-1.4724 0.52149-2.084 0.36136-0.61154 0.85501-1.0844 1.4805-1.418 0.63935-0.33357 1.3543-0.5 2.1465-0.5zm64.271 20.26c-0.99373-0.0221-2.095 0.31722-3.3047 1.0156l-8.3418 4.8144 0.70899 1.2285 1.8242-1.0527c-0.38453 0.75163-0.55222 1.5452-0.50195 2.3828 0.0503 0.8376 0.30784 1.6604 0.77344 2.4668 0.5212 0.90275 1.1842 1.6037 1.9863 2.1035 0.80212 0.49984 1.6739 0.75914 2.6152 0.77734 0.9344 0.006 1.8456-0.24747 2.7363-0.76172 0.89071-0.51425 1.573-1.1807 2.0469-2 0.45488-0.82434 0.67403-1.7125 0.6543-2.6641-0.0387-0.95661-0.31583-1.8808-0.83008-2.7715-0.4517-0.78239-1.018-1.4021-1.6992-1.8594-0.68822-0.4693-1.4481-0.72956-2.2793-0.7793l1.209-0.69726c1.1796-0.68104 2.2096-0.89839 3.0898-0.65235 0.89234 0.23911 1.6859 0.96041 2.3808 2.1641 0.41697 0.72219 0.70195 1.4794 0.85547 2.2734 0.14651 0.78202 0.14713 1.5212 0.002 2.2148l1.3516 0.0859c0.17247-0.75758 0.15792-1.601-0.041-2.5293-0.19384-0.9473-0.54348-1.8596-1.0508-2.7383-0.91731-1.5888-1.9925-2.5482-3.2266-2.8789-0.30725-0.0874-0.62774-0.13522-0.95898-0.14258zm-259.19 1.4688c-0.28827 0.0111-0.56973 0.0563-0.84375 0.13477-1.1012 0.29505-1.9956 1.0388-2.6836 2.2305-0.47253 0.81848-0.72728 1.6337-0.76368 2.4473-0.0415 0.79455 0.12573 1.5342 0.50196 2.2168l-1.75-1.0117-0.70899 1.2266 9.4961 5.4844 0.74023-1.2832-4.9824-2.877c-1.0713-0.61849-1.7387-1.3948-2-2.332-0.2664-0.95625-0.10437-1.9476 0.48633-2.9707 0.52814-0.91478 1.1936-1.4694 1.9961-1.6641 0.80249-0.19467 1.6986-0.007 2.6856 0.5625l5.3789 3.1074 0.74024-1.2812-5.5059-3.1797c-0.99302-0.57332-1.9223-0.84387-2.7871-0.81055zm254.85 2.4297c0.70334-0.005 1.3658 0.18255 1.9863 0.5625 0.60854 0.3869 1.1098 0.92329 1.5059 1.6094 0.3961 0.68609 0.60982 1.3889 0.64062 2.1094 0.0118 0.71537-0.15693 1.3813-0.50586 2-0.35588 0.60669-0.87087 1.105-1.5449 1.4941-0.67405 0.38935-1.3631 0.58713-2.0664 0.5918-0.71029-0.007-1.3652-0.19936-1.9668-0.57422-0.60856-0.3869-1.1117-0.9233-1.5078-1.6094-0.40306-0.69812-0.60929-1.4038-0.62109-2.1191-0.0308-0.72046 0.13045-1.3835 0.48633-1.9902 0.33688-0.61177 0.84353-1.1128 1.5176-1.502 0.67405-0.38918 1.3659-0.57947 2.0762-0.57227zm-234.04 7.9844-0.70898 1.2285 1.8242 1.0527c-0.84319 0.0428-1.6142 0.29547-2.3145 0.75781-0.70026 0.46234-1.2844 1.0959-1.75 1.9023-0.52121 0.90274-0.79639 1.8269-0.82812 2.7715-0.0318 0.94456 0.17989 1.83 0.63476 2.6543 0.46188 0.81233 1.1367 1.474 2.0274 1.9883 0.89073 0.51436 1.8094 0.77277 2.7559 0.77344 0.94138-0.0182 1.8206-0.2747 2.6348-0.76758 0.80906-0.51186 1.4701-1.2128 1.9844-2.1035 0.45167-0.78238 0.70436-1.5818 0.75976-2.4004 0.0623-0.83066-0.0924-1.6186-0.46484-2.3633l1.209 0.69726c1.1796 0.68104 1.8842 1.4642 2.1113 2.3496 0.23906 0.89231 0.0113 1.9409-0.68359 3.1445-0.41696 0.7222-0.93205 1.3489-1.543 1.8789-0.60391 0.51796-1.2426 0.88634-1.916 1.1074l0.59961 1.2129c0.74234-0.22941 1.4674-0.6624 2.1719-1.2988 0.72343-0.64154 1.3384-1.4006 1.8457-2.2793 0.91732-1.5888 1.2096-3.0003 0.87891-4.2344-0.31165-1.2392-1.2738-2.3246-2.8867-3.2559zm243.34 0.79102-5.5059 3.1797c-1.324 0.76442-2.1243 1.6984-2.4004 2.8047-0.29506 1.1012-0.0981 2.2478 0.58985 3.4394 0.47256 0.8185 1.0519 1.4465 1.7383 1.8848 0.66736 0.43316 1.3906 0.6583 2.1699 0.67383l-1.752 1.0117 0.70898 1.2266 9.4961-5.4824-0.73828-1.2812-4.9844 2.877c-1.0713 0.6185-2.0772 0.80676-3.0195 0.56446-0.96136-0.24746-1.7374-0.88317-2.3281-1.9062-0.52815-0.91478-0.67601-1.7682-0.44336-2.5606 0.23265-0.79231 0.84112-1.4731 1.8281-2.043l5.3809-3.1074zm-270.02 0.5918c-0.97051-0.0147-1.8719 0.22665-2.7051 0.72461-0.83315 0.49796-1.5148 1.2044-2.043 2.1191-0.52814 0.91478-0.79978 1.8576-0.81445 2.8281-0.0147 0.97051 0.22384 1.8794 0.71485 2.7246 0.491 0.8452 1.2001 1.5352 2.127 2.0703 0.92682 0.53506 1.878 0.80398 2.8555 0.80665 0.97746 0.003 1.8892-0.24142 2.7344-0.73243 0.83316-0.49795 1.5148-1.2044 2.043-2.1191 0.52815-0.91478 0.79979-1.8576 0.81445-2.8281 0.003-0.97746-0.24618-1.8836-0.74414-2.7168-0.491-0.84519-1.2001-1.5352-2.127-2.0703-0.92681-0.53506-1.878-0.80398-2.8555-0.80664zm-0.0859 1.4434c0.73946 0.0257 1.4692 0.2471 2.1914 0.66406s1.2799 0.93887 1.6719 1.5664c0.39198 0.62753 0.58765 1.3031 0.58789 2.0254-0.005 0.70334-0.20264 1.3904-0.5918 2.0644-0.38917 0.67405-0.89027 1.1965-1.5039 1.5644-0.61871 0.34893-1.3005 0.51562-2.0469 0.50196-0.73945-0.0257-1.4712-0.2471-2.1934-0.66407-0.7222-0.41695-1.2779-0.93887-1.6699-1.5664-0.38485-0.63958-0.57498-1.3103-0.57032-2.0137-0.00023-0.72233 0.19287-1.4216 0.58203-2.0957 0.38917-0.67404 0.893-1.1862 1.5117-1.5352 0.61364-0.36788 1.2918-0.53739 2.0312-0.51172zm28.498 0.46289c0.69825-0.0141 1.3846 0.17336 2.0586 0.5625 0.67407 0.38918 1.1862 0.893 1.5352 1.5117 0.35585 0.60668 0.52459 1.2745 0.50586 2.002-0.0308 0.72045-0.24452 1.4233-0.64063 2.1094-0.39611 0.68609-0.89927 1.2225-1.5078 1.6094-0.61362 0.3679-1.2741 0.5553-1.9844 0.5625-0.70335-0.005-1.3923-0.20067-2.0664-0.58984-0.67401-0.38914-1.189-0.88746-1.5449-1.4942-0.34894-0.61872-0.51215-1.2818-0.48828-1.9902 0.0307-0.72049 0.24452-1.4252 0.64062-2.1113 0.40306-0.69812 0.91177-1.2297 1.5254-1.5976 0.6086-0.38668 1.2634-0.57889 1.9668-0.57422zm-40.609 6.2734c-0.12838-0.0139-0.26011-0.00061-0.39649 0.041-0.28479 0.0763-0.50337 0.24691-0.65625 0.51172-0.15289 0.26481-0.19153 0.53943-0.11523 0.82422 0.0763 0.28478 0.23387 0.49773 0.47461 0.63672 0.25276 0.14593 0.52185 0.17982 0.80664 0.10351 0.28479-0.0763 0.50337-0.24691 0.65625-0.51172 0.15288-0.2648 0.19154-0.53943 0.11523-0.82421-0.0763-0.28479-0.24692-0.50337-0.51172-0.65626-0.12036-0.0695-0.24467-0.11106-0.37304-0.125zm259.18 1.3535-5.5078 3.1797c-1.3361 0.77138-2.1495 1.6971-2.4394 2.7793-0.29693 1.0702-0.10009 2.201 0.58789 3.3926 0.48645 0.84256 1.1004 1.4918 1.8438 1.9453 0.72432 0.44841 1.5007 0.66461 2.3281 0.65234-0.49506 0.67108-0.74162 1.3992-0.73828 2.1836-0.003 0.77231 0.22491 1.5571 0.68359 2.3516 0.45169 0.78234 1.0076 1.3836 1.668 1.8047 0.66044 0.42127 1.3761 0.63339 2.1484 0.63672l-1.7324 1 0.70899 1.2285 9.4961-5.4824-0.74023-1.2832-4.9824 2.877c-1.0713 0.61849-2.0715 0.81984-3 0.60156-0.94742-0.22331-1.7027-0.82385-2.2656-1.7988-0.50731-0.87869-0.63719-1.7005-0.39062-2.4688 0.23958-0.78032 0.85284-1.4555 1.8398-2.0254l5.3809-3.1074-0.74024-1.2812-4.9844 2.877c-1.0712 0.61849-2.0696 0.81784-2.998 0.59961-0.94048-0.2113-1.6958-0.80988-2.2656-1.7969-0.50035-0.86664-0.62741-1.6849-0.38086-2.4531 0.2396-0.78029 0.85284-1.4555 1.8398-2.0254l5.3809-3.1055zm-255.96 0.81836-0.74023 1.2832 9.498 5.4824 0.73828-1.2812zm286.12 1.3789-9.4961 5.4844 0.74024 1.2812 9.4961-5.4824zm-255.15 0.23242c-0.97051-0.0147-1.8719 0.22665-2.7051 0.72461-0.8332 0.49792-1.5129 1.2044-2.041 2.1191-0.52816 0.91478-0.79986 1.8576-0.81446 2.8281-0.0147 0.9705 0.22384 1.8775 0.71485 2.7227 0.491 0.84519 1.1982 1.5352 2.125 2.0703 0.9268 0.53506 1.88 0.80398 2.8574 0.80664 0.97745 0.003 1.8892-0.24141 2.7344-0.73242 0.83315-0.49796 1.5129-1.2044 2.041-2.1191 0.52815-0.91478 0.79979-1.8576 0.81445-2.8281 0.003-0.97745-0.24423-1.8817-0.74218-2.7148-0.49101-0.84519-1.2002-1.5352-2.127-2.0703-0.9268-0.53505-1.88-0.80398-2.8574-0.80664zm-0.0859 1.4414c0.73948 0.0257 1.4712 0.24711 2.1934 0.66407 0.72219 0.41695 1.2779 0.93886 1.6699 1.5664 0.39196 0.62752 0.58767 1.3031 0.58789 2.0254-0.005 0.70334-0.20067 1.3924-0.58984 2.0664-0.38916 0.67405-0.89028 1.1946-1.5039 1.5625-0.61872 0.34895-1.3025 0.51757-2.0488 0.50391-0.73948-0.0257-1.4692-0.24711-2.1914-0.66407-0.72219-0.41696-1.2799-0.93886-1.6719-1.5664-0.38487-0.63955-0.57498-1.3122-0.57032-2.0156-0.00022-0.72232 0.19483-1.4197 0.58399-2.0938 0.38916-0.67405 0.893-1.1862 1.5117-1.5352 0.61368-0.36787 1.2899-0.53934 2.0293-0.51368zm-33.322 1.1777-1.668 2.8887-2.0762-1.1992-0.74024 1.2812 2.0762 1.1992-0.98047 1.6973 1.084 0.625 0.98047-1.6973 5.7402 3.3164c0.87867 0.5073 1.6976 0.65857 2.457 0.45508 0.75944-0.20349 1.3979-0.74992 1.9121-1.6406 0.22238-0.38517 0.37946-0.78371 0.47266-1.1953 0.0881-0.4306 0.0933-0.8295 0.0156-1.1953l-1.1816-0.0801c0.0522 0.27089 0.048 0.55601-0.0137 0.85742-0.0547 0.28937-0.15961 0.56722-0.3125 0.83203-0.30577 0.52961-0.68497 0.85642-1.1406 0.97852-0.46075 0.1031-0.97529-0.009-1.541-0.33594l-5.668-3.2734 1.668-2.8887zm276.28 3.9219c-0.13739 0.0191-0.2719 0.0681-0.4043 0.14454-0.24074 0.13898-0.39276 0.34717-0.45703 0.625-0.0763 0.28477-0.0377 0.55938 0.11524 0.82421 0.15286 0.26478 0.37143 0.43537 0.65625 0.51172 0.28477 0.0763 0.54637 0.0452 0.78711-0.0937 0.25276-0.14593 0.41782-0.36171 0.49414-0.64648 0.0763-0.28484 0.0376-0.55945-0.11524-0.82422-0.1529-0.26483-0.37147-0.43543-0.65625-0.51172-0.14239-0.0381-0.28252-0.0484-0.41992-0.0293zm16.377 0.31446-4.8379 2.7949c-1.1074 0.63933-2.1318 0.85188-3.0723 0.64062-0.9405-0.21132-1.6986-0.81538-2.2754-1.8144l-0.16016-0.31836-1.2461 0.7207c0.50731 0.87869 1.099 1.5233 1.7715 1.9375 0.66552 0.4022 1.4032 0.57132 2.2148 0.50391l-1.8594 1.0723 0.70898 1.2285 9.4961-5.4824zm-272.12 1.2305-0.74024 1.2812 5.7051 3.2949c-0.84325 0.0428-1.6011 0.28525-2.2754 0.73047-0.67941 0.42623-1.2427 1.0246-1.6875 1.7949-0.51424 0.8907-0.77358 1.8169-0.78125 2.7754-0.0198 0.95151 0.21884 1.8426 0.7168 2.6758 0.49795 0.83315 1.2154 1.5205 2.1543 2.0625 0.93885 0.54205 1.8947 0.82127 2.8652 0.83594 0.9705 0.0147 1.8691-0.22111 2.6953-0.70703s1.4955-1.1738 2.0098-2.0645c0.45865-0.79441 0.70027-1.6033 0.72461-2.4238 0.0313-0.83249-0.16062-1.6254-0.57618-2.3789l1.877 1.0859 0.70898-1.2285zm-22.764 2.5684c-0.8293 0.0187-1.5891 0.26313-2.2774 0.73243-0.6933 0.4503-1.2755 1.0838-1.748 1.9023-0.54206 0.93885-0.8241 1.9003-0.8457 2.8828-0.0147 0.97052 0.22384 1.8794 0.71484 2.7246 0.49101 0.84519 1.2001 1.5352 2.127 2.0703 0.92682 0.53508 1.8855 0.80681 2.875 0.81641 0.97746 0.003 1.8817-0.24423 2.7148-0.74219 0.8401-0.50999 1.5322-1.235 2.0742-2.1738 0.46558-0.80646 0.72868-1.6264 0.79102-2.457 0.0503-0.8376-0.12305-1.6201-0.52149-2.3476l-1.2031 0.58203c0.28873 0.58397 0.40864 1.1834 0.35937 1.7969-0.0493 0.6135-0.23783 1.2038-0.56445 1.7695-0.39611 0.68608-0.90481 1.2177-1.5254 1.5976-0.62567 0.36098-1.3047 0.53799-2.0391 0.53125-0.73945-0.0257-1.4767-0.24991-2.2109-0.67383-0.7222-0.41696-1.2779-0.93887-1.6699-1.5664-0.38504-0.63957-0.57235-1.3178-0.56055-2.0332 0.007-0.73436 0.2074-1.4448 0.60351-2.1308 0.32663-0.56573 0.74888-1.0189 1.2676-1.3613 0.50667-0.34942 1.0862-0.54596 1.7363-0.58789zm296.02 1.5332-0.41406 1.2012c0.6177 0.12479 1.1781 0.37178 1.6797 0.74023 0.48955 0.37534 0.90365 0.8575 1.2442 1.4473 0.60459 1.0472 0.80531 2.0875 0.59961 3.1211-0.21778 1.0405-0.80082 1.8813-1.7461 2.5234l-4.5859-7.9434-0.4082 0.21094c-0.93885 0.54204-1.6536 1.221-2.1465 2.0352-0.50507 0.82116-0.76158 1.6984-0.76758 2.6328-0.006 0.93437 0.24464 1.84 0.75195 2.7188 0.50731 0.87869 1.171 1.5554 1.9902 2.0293 0.81229 0.46183 1.7033 0.68655 2.6738 0.67188 0.9636-0.0267 1.9091-0.30866 2.8359-0.84375 0.92681-0.5351 1.6359-1.2251 2.127-2.0703 0.49102-0.84519 0.73031-1.7625 0.72071-2.752-0.0286-0.99459-0.32381-1.9801-0.88672-2.9551-0.43781-0.75832-0.96953-1.3727-1.5957-1.8457-0.63312-0.48506-1.3235-0.79247-2.0723-0.92187zm-267.54 1.5098c0.74643 0.0137 1.479 0.22757 2.2012 0.64453 0.72218 0.41696 1.277 0.94636 1.6621 1.5859 0.39195 0.62752 0.58766 1.3011 0.5879 2.0234-0.005 0.70334-0.19787 1.3868-0.58008 2.0488-0.38916 0.67404-0.89028 1.1946-1.5039 1.5625-0.61872 0.34894-1.3025 0.51757-2.0488 0.5039-0.73947-0.0257-1.4692-0.2471-2.1914-0.66406-0.72219-0.41695-1.2799-0.93886-1.6719-1.5664-0.38486-0.63955-0.57498-1.3123-0.57031-2.0156-0.00023-0.72233 0.19482-1.4197 0.58398-2.0938 0.38222-0.66201 0.88128-1.1686 1.5-1.5176 0.61369-0.36786 1.2918-0.53738 2.0312-0.51172zm264.05 1.3418 3.8867 6.7344c-0.98749 0.4578-1.9467 0.54793-2.8789 0.26757-0.95115-0.28538-1.6906-0.88602-2.2188-1.8008-0.53509-0.9268-0.6846-1.8679-0.44921-2.8223 0.21639-0.95947 0.76997-1.7526 1.6602-2.3789zm-20.83 1.6992-5.5059 3.1797c-1.324 0.76442-2.1243 1.7004-2.4004 2.8066-0.29504 1.1012-0.0981 2.2479 0.58985 3.4394 0.45867 0.79445 1.0146 1.4114 1.6699 1.8516 0.65533 0.44014 1.36 0.67568 2.1152 0.70508l-5.5605 3.209 0.74023 1.2832 13.396-7.7344-0.74024-1.2832-4.9824 2.877c-1.0713 0.61849-2.0772 0.80682-3.0195 0.56446-0.96133-0.2474-1.7374-0.88316-2.3281-1.9062-0.52814-0.91477-0.67598-1.7682-0.44336-2.5606 0.23267-0.79231 0.84113-1.4731 1.8281-2.043l5.3809-3.1055zm-283.21 1.9414c-0.12838-0.0139-0.26011-0.00062-0.39649 0.041-0.28478 0.0763-0.50532 0.24692-0.6582 0.51172-0.15289 0.26481-0.18959 0.53943-0.11328 0.82422 0.0763 0.28479 0.23387 0.49773 0.47461 0.63672 0.25276 0.14594 0.52184 0.17983 0.80664 0.10351 0.28478-0.0763 0.50336-0.24691 0.65625-0.51172 0.15288-0.2648 0.19154-0.53942 0.11523-0.82421-0.0763-0.28479-0.24692-0.50337-0.51172-0.65625-0.12037-0.0695-0.24467-0.11107-0.37304-0.125zm3.2109 2.1719-0.74023 1.2832 9.4961 5.4824 0.74024-1.2812zm310.6 2.2324-0.41407 1.2012c0.61774 0.12485 1.1781 0.37185 1.6797 0.74024 0.48957 0.3754 0.90364 0.85749 1.2441 1.4473 0.60459 1.0472 0.80531 2.0875 0.59961 3.1211-0.21777 1.0405-0.80078 1.8814-1.7461 2.5234l-4.5859-7.9434-0.4082 0.21093c-0.93886 0.54204-1.6536 1.221-2.1465 2.0352-0.50506 0.8211-0.76158 1.6984-0.76758 2.6328-0.006 0.93438 0.24464 1.8401 0.75196 2.7188 0.50727 0.87864 1.171 1.5554 1.9902 2.0293 0.81233 0.46188 1.7033 0.68654 2.6738 0.67187 0.96355-0.0267 1.9091-0.30865 2.8359-0.84375 0.92681-0.5351 1.6359-1.2251 2.127-2.0703 0.49102-0.84518 0.7303-1.7624 0.7207-2.752-0.0286-0.9946-0.32384-1.9802-0.88672-2.9551-0.43781-0.75832-0.96953-1.3727-1.5957-1.8457-0.63313-0.48506-1.3235-0.79247-2.0723-0.92188zm-317.3 0.36914-0.74023 1.2812 5.7051 3.2949c-0.84319 0.0428-1.6011 0.28525-2.2754 0.73047-0.6794 0.42624-1.2427 1.0246-1.6875 1.7949-0.51423 0.8907-0.77351 1.815-0.78125 2.7734-0.0197 0.95152 0.21885 1.8446 0.7168 2.6777 0.49796 0.83316 1.2154 1.5205 2.1543 2.0625 0.93885 0.54204 1.8947 0.82127 2.8652 0.83593 0.97052 0.0147 1.8691-0.22111 2.6953-0.70703s1.4955-1.1737 2.0098-2.0644c0.45866-0.79441 0.70028-1.6033 0.72461-2.4238 0.0313-0.83252-0.16061-1.6254-0.57617-2.3789l1.877 1.084 0.70899-1.2266zm35.82 0.57617c-0.28826 0.0111-0.56973 0.0562-0.84375 0.13477-1.1012 0.29503-1.9956 1.0388-2.6836 2.2305-0.45864 0.79441-0.71411 1.5854-0.76758 2.373-0.0535 0.78759 0.0952 1.5168 0.44727 2.1855l-5.5606-3.2109-0.74023 1.2812 13.396 7.7344 0.74024-1.2812-4.9844-2.877c-1.0712-0.61846-1.7367-1.3967-1.998-2.334-0.26638-0.95623-0.10436-1.9456 0.48633-2.9688 0.52815-0.91478 1.1936-1.4694 1.9961-1.6641 0.80249-0.19468 1.6966-0.007 2.6836 0.5625l5.3809 3.1055 0.74023-1.2812-5.5059-3.1797c-0.99304-0.57333-1.9223-0.84387-2.7871-0.81055zm278 1.9063 3.8867 6.7344c-0.9875 0.45781-1.9467 0.54787-2.8789 0.26758-0.95115-0.28538-1.6906-0.88602-2.2188-1.8008-0.53513-0.92687-0.68461-1.8679-0.44922-2.8223 0.21639-0.95947 0.76994-1.7526 1.6602-2.3789zm-21.307 2.209-0.66016 0.98242c0.26074 0.0902 0.50616 0.23927 0.73633 0.44336 0.22325 0.19211 0.41158 0.41882 0.56445 0.68359 0.30577 0.52962 0.39747 1.0228 0.27539 1.4785-0.14108 0.45055-0.49483 0.8394-1.0605 1.166l-5.668 3.2734-1.668-2.8887-1.084 0.625 1.668 2.8887-2.0762 1.1992 0.74023 1.2812 2.0762-1.1992 0.98046 1.6973 1.082-0.625-0.97852-1.6973 5.7402-3.3144c0.87867-0.5073 1.4196-1.1409 1.623-1.9004 0.20351-0.75941 0.0494-1.5839-0.46484-2.4746-0.22237-0.38515-0.48896-0.72128-0.79883-1.0078-0.32883-0.29158-0.67169-0.49567-1.0273-0.61133zm-286.8 0.91797c0.7464 0.0137 1.4809 0.22952 2.2031 0.64648 0.72219 0.41696 1.2771 0.94637 1.6621 1.5859 0.39199 0.62753 0.58766 1.3011 0.58789 2.0234-0.005 0.70334-0.19786 1.3868-0.58008 2.0488-0.38916 0.67404-0.89026 1.1946-1.5039 1.5625-0.61872 0.34892-1.3024 0.51757-2.0488 0.5039-0.73945-0.0257-1.4692-0.2471-2.1914-0.66406-0.72219-0.41696-1.2799-0.94083-1.6719-1.5684-0.38486-0.63957-0.57498-1.3103-0.57032-2.0137-0.00022-0.72234 0.19483-1.4197 0.58399-2.0938 0.38221-0.66202 0.88128-1.1686 1.5-1.5176 0.61364-0.36794 1.2898-0.53941 2.0293-0.51367zm319.53 4.4004-5.5078 3.1797c-1.324 0.76442-2.1243 1.7004-2.4004 2.8066-0.29504 1.1012-0.0981 2.2479 0.58985 3.4394 0.47258 0.81854 1.0519 1.4465 1.7383 1.8848 0.66736 0.43316 1.3906 0.65836 2.1699 0.67382l-1.752 1.0098 0.70898 1.2285 9.498-5.4824-0.74024-1.2832-4.9844 2.877c-1.0713 0.6185-2.0772 0.80682-3.0195 0.56446-0.96132-0.2474-1.7374-0.88316-2.3281-1.9062-0.52814-0.91477-0.67598-1.7682-0.44336-2.5606 0.23266-0.7923 0.84307-1.4731 1.8301-2.043l5.3809-3.1055zm-295.23 1.2148c-0.82934 0.0187-1.5872 0.26118-2.2754 0.73047-0.6933 0.4503-1.2755 1.0858-1.748 1.9043-0.54208 0.93886-0.82417 1.9002-0.84571 2.8828-0.0147 0.97051 0.22384 1.8775 0.71485 2.7227 0.491 0.84518 1.1982 1.5352 2.125 2.0703 0.9268 0.53507 1.8855 0.80681 2.875 0.81641 0.97746 0.003 1.8836-0.24423 2.7168-0.74219 0.8401-0.51 1.5302-1.235 2.0723-2.1738 0.46559-0.80645 0.73063-1.6244 0.79297-2.4551 0.0503-0.83761-0.12501-1.6201-0.52344-2.3476l-1.2012 0.58203c0.28877 0.58398 0.40669 1.1814 0.35742 1.7949-0.0493 0.61347-0.23588 1.2038-0.5625 1.7695-0.39611 0.68609-0.90481 1.2197-1.5254 1.5996-0.62567 0.36094-1.3067 0.53792-2.041 0.53125-0.73948-0.0257-1.4748-0.25188-2.209-0.67578-0.72219-0.41696-1.2799-0.93886-1.6719-1.5664-0.38498-0.63954-0.57228-1.3158-0.56054-2.0312 0.007-0.73436 0.20935-1.4448 0.60547-2.1309 0.32662-0.56572 0.74885-1.0208 1.2676-1.3633 0.50668-0.34943 1.0843-0.544 1.7344-0.58594zm268.04 1.7188-9.4961 5.4844 0.74023 1.2812 9.4961-5.4824zm-298.75 2.4824c-0.96356-0.0267-1.8518 0.19051-2.6641 0.65235s-1.4712 1.1311-1.9785 2.0098c-0.5074 0.87867-0.76105 1.7918-0.76172 2.7383 0.006 0.9344 0.2579 1.8192 0.75586 2.6524 0.5049 0.82112 1.2197 1.4981 2.1465 2.0332 0.92682 0.53506 1.88 0.80398 2.8574 0.80664 0.97747 0.003 1.892-0.24696 2.7441-0.75 0.84705-0.52203 1.5524-1.2711 2.1152-2.2461 0.43781-0.75831 0.70423-1.5259 0.80078-2.3047 0.10351-0.79083 0.024-1.5427-0.23828-2.2559l-1.248 0.24219c0.20077 0.59737 0.26749 1.2056 0.19922 1.8242-0.0803 0.61164-0.29034 1.211-0.63086 1.8008-0.60458 1.0472-1.4064 1.7415-2.4043 2.0801-1.01 0.33166-2.028 0.24762-3.0566-0.25l4.5859-7.9434-0.38672-0.24805c-0.93884-0.54207-1.8844-0.82206-2.8359-0.8418zm0.10351 1.3418c0.48166 0.0414 0.96914 0.1754 1.4629 0.4043l-3.8867 6.7344c-0.89021-0.6263-1.4485-1.4119-1.6719-2.3594-0.22843-0.96642-0.077-1.9075 0.45117-2.8223 0.5351-0.92682 1.2745-1.5274 2.2188-1.8008 0.46956-0.14617 0.94413-0.19761 1.4258-0.15625zm286.36 2.9492c-0.13741 0.0191-0.2719 0.0681-0.4043 0.14453-0.24071 0.13899-0.39277 0.34712-0.45703 0.625-0.0763 0.28477-0.0376 0.55945 0.11523 0.82422 0.15291 0.26484 0.37147 0.43543 0.65625 0.51172 0.28482 0.0764 0.54834 0.0452 0.78906-0.0937 0.25278-0.14593 0.41591-0.36165 0.49219-0.64649 0.0763-0.28477 0.0377-0.55938-0.11523-0.82421-0.15287-0.26478-0.37147-0.43544-0.65625-0.51172-0.14241-0.0382-0.28252-0.0484-0.41992-0.0293zm16.377 0.31445-4.8379 2.7949c-1.1074 0.63934-2.1318 0.85195-3.0723 0.64063-0.94046-0.21127-1.6986-0.81539-2.2754-1.8144l-0.16015-0.31836-1.2441 0.7207c0.5073 0.87869 1.0971 1.5253 1.7695 1.9394 0.66549 0.40214 1.4032 0.56936 2.2148 0.50196l-1.8594 1.0723 0.70898 1.2285 9.4961-5.4824zm-279.85 0.40039-1.668 2.8887-2.0762-1.1992-0.74024 1.2832 2.0762 1.1973-0.97851 1.6973 1.082 0.62695 0.98047-1.6973 5.7402 3.3144c0.87864 0.50728 1.6995 0.65855 2.459 0.45508 0.75941-0.20351 1.3959-0.74992 1.9102-1.6406 0.22238-0.38517 0.37946-0.78371 0.47266-1.1953 0.0881-0.4306 0.0933-0.82949 0.0156-1.1953l-1.1816-0.0801c0.0523 0.27091 0.048 0.55797-0.0137 0.85938-0.0547 0.28936-0.15767 0.56527-0.31054 0.83007-0.30578 0.52962-0.68694 0.85642-1.1426 0.97852-0.46074 0.10311-0.97528-0.009-1.541-0.33594l-5.668-3.2734 1.668-2.8887zm310.07 1.9024-9.4961 5.4824 0.74024 1.2832 9.4961-5.4844zm-341.1 1.6348c-0.50731 0.87867-0.77245 1.7144-0.79492 2.5039-0.0155 0.77743 0.20963 1.5007 0.67383 2.1699l-1.8594-1.0742-0.70898 1.2266 9.4961 5.4844 0.74024-1.2832-4.8379-2.793c-1.1074-0.63934-1.8046-1.4197-2.0918-2.3398-0.28725-0.92014-0.14321-1.8799 0.43359-2.8789l0.19532-0.29492zm311.24 1.8965c-0.97746 0.003-1.9286 0.27154-2.8555 0.80664-0.92682 0.53509-1.636 1.2251-2.127 2.0703-0.49795 0.83314-0.73927 1.7365-0.72461 2.707 0.0147 0.97051 0.28632 1.9114 0.81446 2.8262 0.52814 0.91476 1.2079 1.6212 2.041 2.1191 0.83316 0.498 1.7393 0.74681 2.7168 0.74414 0.97745-0.003 1.9286-0.27154 2.8555-0.80664 0.92682-0.53509 1.636-1.2251 2.127-2.0703 0.49105-0.84518 0.73509-1.7569 0.73242-2.7344-0.0147-0.97051-0.28631-1.9134-0.81445-2.8281-0.52814-0.91476-1.2079-1.6212-2.041-2.1191-0.84519-0.491-1.7541-0.72951-2.7246-0.71484zm34.818 0.98828c-0.99372-0.0221-2.097 0.31527-3.3066 1.0137l-8.3398 4.8164 0.70898 1.2266 1.8223-1.0527c-0.38453 0.75161-0.55222 1.5471-0.50195 2.3848 0.0503 0.83761 0.30979 1.6604 0.77539 2.4668 0.52122 0.90278 1.1822 1.6037 1.9844 2.1035 0.80213 0.49984 1.6739 0.75915 2.6152 0.77735 0.93439 0.006 1.8476-0.24943 2.7383-0.76368 0.89071-0.51425 1.573-1.1808 2.0469-2 0.45489-0.82434 0.67208-1.7125 0.65235-2.6641-0.0387-0.9566-0.31582-1.8788-0.83008-2.7695-0.45169-0.78235-1.018-1.4021-1.6992-1.8594-0.68822-0.4693-1.4481-0.72957-2.2793-0.7793l1.209-0.69922c1.1796-0.68103 2.2096-0.89835 3.0898-0.65234 0.89235 0.23912 1.686 0.96043 2.3809 2.1641 0.41699 0.72225 0.70393 1.4814 0.85742 2.2754 0.1465 0.78203 0.14711 1.5192 0.002 2.2129l1.3496 0.0879c0.17245-0.75762 0.15986-1.601-0.0391-2.5293-0.19387-0.94733-0.54546-1.8596-1.0527-2.7383-0.91732-1.5888-1.9925-2.5482-3.2266-2.8789-0.30724-0.0874-0.62579-0.13523-0.95703-0.14258zm-34.73 0.45508c0.73946-0.0257 1.4212 0.14098 2.0469 0.50195 0.60665 0.35582 1.105 0.87085 1.4941 1.5449 0.38916 0.67408 0.58976 1.3687 0.60156 2.084-0.007 0.71029-0.20479 1.3858-0.58984 2.0254-0.39195 0.62758-0.94773 1.1494-1.6699 1.5664-0.7222 0.41695-1.4539 0.6384-2.1934 0.66407-0.7464 0.0137-1.4226-0.1578-2.0293-0.51368-0.62565-0.3609-1.1323-0.8767-1.5215-1.5508-0.38916-0.67407-0.58142-1.3679-0.57422-2.0781-0.0118-0.71539 0.17832-1.3862 0.57031-2.0137 0.39196-0.62759 0.94968-1.1494 1.6719-1.5664 0.72219-0.41695 1.4539-0.6384 2.1934-0.66406zm17.486 1.7988c-0.13739 0.0191-0.27385 0.0661-0.40625 0.14257-0.24074 0.13899-0.39276 0.34718-0.45703 0.625-0.0763 0.28477-0.0377 0.56134 0.11524 0.82617 0.15287 0.26478 0.37147 0.43348 0.65625 0.50977 0.2848 0.0764 0.54833 0.0452 0.78906-0.0937 0.25277-0.14593 0.4159-0.3597 0.49219-0.64453 0.0763-0.28477 0.0396-0.5614-0.11329-0.82617-0.15289-0.26484-0.37146-0.43543-0.65624-0.51172-0.1424-0.0382-0.28253-0.0465-0.41993-0.0273zm-301.27 0.55078c-0.26275 0.0138-0.51857 0.0598-0.76758 0.13672-1.0082 0.30061-1.8702 1.0708-2.5859 2.3105-0.43086 0.74628-0.72627 1.522-0.88672 2.3281-0.17253 0.79914-0.19376 1.5576-0.0625 2.2754l1.291-0.0254c-0.1197-0.59872-0.11532-1.2316 0.0117-1.8965 0.11504-0.67181 0.34589-1.3083 0.69335-1.9102 0.5073-0.87867 1.1092-1.4217 1.8066-1.6289 0.68535-0.21416 1.4374-0.0839 2.2558 0.38867l0.57813 0.33399-1.7402 3.0137c-0.73663 1.2759-1.0299 2.3518-0.87695 3.2266 0.15992 0.86267 0.64468 1.5266 1.4512 1.9922 0.83052 0.4795 1.678 0.55278 2.5449 0.21875 0.86689-0.33404 1.6072-1.0306 2.2188-2.0898 0.44473-0.77034 0.6876-1.5131 0.73046-2.2266 0.0497-0.72558-0.0893-1.3754-0.41601-1.9492l1.4805 0.85547 0.70898-1.2285-5.8848-3.3984c-0.91175-0.5264-1.7626-0.76799-2.5508-0.72656zm314.17 1.0918c0.70334-0.005 1.3657 0.18254 1.9863 0.5625 0.60852 0.38686 1.1097 0.92326 1.5059 1.6094 0.3961 0.68606 0.60983 1.3889 0.64063 2.1094 0.0118 0.71539-0.15693 1.3832-0.50586 2.002-0.35588 0.60668-0.87087 1.105-1.5449 1.4941-0.67404 0.38936-1.3631 0.58517-2.0664 0.58984-0.7103-0.007-1.3652-0.19739-1.9668-0.57226-0.60856-0.38692-1.1117-0.92333-1.5078-1.6094-0.40305-0.6981-0.6093-1.4057-0.6211-2.1211-0.0308-0.72048 0.13045-1.3836 0.48633-1.9902 0.33689-0.61176 0.84353-1.1128 1.5176-1.502 0.67405-0.38919 1.3659-0.57947 2.0762-0.57227zm-347.09 0.39453c-0.49391 0.00071-0.98572 0.0894-1.4726 0.26563-1.2985 0.47003-2.4125 1.5121-3.3438 3.125l-2.7305 4.7305 12.639 7.2969 0.76953-1.3359-3.9883-2.3047 1.959-3.3945c0.93122-1.6129 1.281-3.0947 1.0508-4.4473-0.24219-1.3595-1.0367-2.4287-2.3848-3.207-0.84256-0.48645-1.6749-0.7297-2.498-0.72852zm36.211 1.377 1.5527 0.89648c0.47999 0.61413 0.73915 1.2781 0.77735 1.9902 0.0262 0.7052-0.16898 1.4184-0.58594 2.1406-0.43781 0.75831-0.93601 1.2574-1.4922 1.498-0.56822 0.23364-1.1279 0.19077-1.6816-0.12891-1.1314-0.65322-1.2292-1.7911-0.29101-3.416zm-36.703 0.15039c0.7115-0.0857 1.4514 0.0941 2.2188 0.53711 0.99904 0.57679 1.5844 1.3562 1.7559 2.3379 0.15944 0.97473-0.12297 2.088-0.84571 3.3398l-1.9375 3.3574-6.3203-3.6484 1.9394-3.3574c0.72273-1.2518 1.5524-2.0502 2.4883-2.3926 0.23097-0.0873 0.46401-0.14526 0.70118-0.17383zm24.23 2.4394-0.74023 1.2812 8.7871 10.008-13.07-2.5879-0.72071 1.2461 8.6914 10.049-12.975-2.6289-0.79297 1.373 15.1 3.0352 0.80274-1.3887-8.6328-9.9434 12.916 2.5215 0.81445-1.4082zm304.01 0.75977c-0.99372-0.0221-2.097 0.31526-3.3066 1.0137l-8.3398 4.8164 0.70898 1.2285 1.8223-1.0547c-0.38453 0.75161-0.55027 1.5472-0.5 2.3848 0.0503 0.83762 0.30784 1.6604 0.77344 2.4668 0.52118 0.90272 1.1822 1.6036 1.9844 2.1035 0.80213 0.49983 1.6739 0.75915 2.6152 0.77735 0.93439 0.006 1.8476-0.24942 2.7383-0.76368 0.8907-0.51425 1.573-1.1808 2.0469-2 0.45488-0.82434 0.67208-1.7106 0.65235-2.6621-0.0387-0.95661-0.31582-1.8808-0.83008-2.7715-0.45169-0.78235-1.018-1.4021-1.6992-1.8594-0.68822-0.4693-1.4482-0.72956-2.2793-0.77929l1.2109-0.69727c1.1796-0.68103 2.2096-0.90031 3.0898-0.65429 0.89235 0.23912 1.686 0.96044 2.3809 2.1641 0.41696 0.72218 0.70194 1.4813 0.85547 2.2754 0.14649 0.78202 0.14711 1.5192 0.002 2.2129l1.3496 0.0879c0.17246-0.75761 0.15986-1.601-0.0391-2.5293-0.19387-0.94733-0.54545-1.8596-1.0527-2.7383-0.91732-1.5888-1.9925-2.5482-3.2266-2.8789-0.30724-0.0874-0.62579-0.13522-0.95703-0.14257zm28.646 3.6543-5.5059 3.1797c-1.324 0.76443-2.1243 1.7004-2.4004 2.8066-0.29508 1.1012-0.0981 2.2478 0.58984 3.4394 0.47255 0.81849 1.0519 1.4465 1.7383 1.8848 0.6674 0.43322 1.3907 0.65836 2.1699 0.67383l-1.752 1.0098 0.70899 1.2285 9.498-5.4824-0.74023-1.2832-4.9844 2.877c-1.0712 0.61849-2.0772 0.80682-3.0195 0.56445-0.96132-0.2474-1.7374-0.88316-2.3281-1.9062-0.52818-0.91482-0.67602-1.7682-0.44336-2.5606 0.23266-0.7923 0.84308-1.4731 1.8301-2.043l5.3789-3.1055zm-32.984 0.24219c0.70334-0.005 1.3657 0.18253 1.9863 0.5625 0.60853 0.38685 1.1097 0.92326 1.5059 1.6094 0.39609 0.68605 0.60982 1.3908 0.64063 2.1113 0.0118 0.71539-0.15694 1.3813-0.50586 2-0.35588 0.60668-0.87088 1.105-1.5449 1.4942-0.67405 0.38936-1.3611 0.58713-2.0644 0.59179-0.71029-0.007-1.3671-0.19935-1.9688-0.57422-0.60855-0.38691-1.1117-0.92331-1.5078-1.6094-0.40306-0.6981-0.6093-1.4057-0.6211-2.1211-0.0308-0.72048 0.13241-1.3836 0.48829-1.9902 0.33689-0.61177 0.84157-1.1108 1.5156-1.5 0.67405-0.38918 1.3659-0.58142 2.0762-0.57422zm9.334 8.8281-13.396 7.7344 0.74024 1.2812 13.396-7.7344zm30.363 2.5566-1.1543 0.66601 4.3867 7.6016-4.6934 2.7109-3.7734-6.5352-1.1367 0.65625 3.7734 6.5352-4.4961 2.5957-4.2324-7.3301-1.1562 0.66797 5.0039 8.666 12.639-7.2969zm-28.572 0.54492-9.3027 13.074 0.75976 1.3184 15.975-1.5195-0.80273-1.3906-4.252 0.43359-4.0645-7.043 2.5-3.4648zm-2.4902 5.9863 3.502 6.0664-8.5391 0.88672zm-87.48 20.15c-2.8364 0-5.3773 0.61481-7.625 1.8457-2.2478 1.2309-4.0144 2.9445-5.2988 5.1387-1.2844 2.1675-1.9258 4.6021-1.9258 7.3047s0.64133 5.1515 1.9258 7.3457c1.2844 2.1675 3.0511 3.8668 5.2988 5.0977s4.7763 1.8457 7.5859 1.8457c1.9801 0 3.8673-0.30839 5.6602-0.92383 1.7928-0.61545 3.3431-1.4978 4.6543-2.6484v-10.717h-2.8496v9.4727c-2.0069 1.445-4.4538 2.168-7.3438 2.168-2.2745 0-4.323-0.50856-6.1426-1.5254s-3.2513-2.4097-4.2949-4.1758-1.5644-3.7452-1.5644-5.9394 0.5209-4.1753 1.5644-5.9414c1.0436-1.7928 2.4753-3.1838 4.2949-4.1738 1.8463-1.0168 3.9071-1.5254 6.1816-1.5254 3.4251 0 6.2478 1.0968 8.4688 3.291l1.8477-1.8867c-1.2309-1.3379-2.7443-2.3408-4.5371-3.0098-1.7928-0.69572-3.7597-1.043-5.9004-1.043zm-144.87 0.24023v2.5684h9.873v25.529h2.9707v-25.529h9.873v-2.5684zm26.674 0v16.096c0 3.987 1.0152 7.0242 3.0488 9.1113 2.0337 2.0872 4.8706 3.1309 8.5098 3.1309s6.4618-1.0437 8.4688-3.1309c2.0337-2.0872 3.0508-5.1243 3.0508-9.1113v-16.096h-2.8887v15.975c0 3.2646-0.73725 5.7011-2.209 7.3066-1.4717 1.6055-3.6122 2.4082-6.4219 2.4082-2.7829 0-4.9091-0.80268-6.3808-2.4082s-2.209-4.0421-2.209-7.3066v-15.975zm32.068 0v28.098h2.9707v-8.9121h7.5449c0.77601 0 1.5256-0.0389 2.248-0.11914l6.4219 9.0312h3.252l-6.8633-9.6348c2.0604-0.66896 3.6392-1.7515 4.7363-3.25 1.1239-1.5252 1.6855-3.3859 1.6855-5.5801 0-2.997-1.0171-5.3519-3.0508-7.0644-2.0336-1.7126-4.844-2.5684-8.4297-2.5684zm29.006 0v28.098h2.9707v-28.098zm12.15 0v28.098h2.9707v-22.799l18.062 22.799h2.4492v-28.098h-2.9316v22.799l-18.102-22.799zm-38.186 2.5684h7.4648c2.7829 0 4.9111 0.61675 6.3828 1.8477 1.4717 1.2041 2.207 2.9423 2.207 5.2168 0 2.221-0.7353 3.9468-2.207 5.1777s-3.5999 1.8477-6.3828 1.8477h-7.4648zm-151.28 27.381-0.66016 0.98242c0.26072 0.0902 0.50614 0.23728 0.73633 0.44141 0.22324 0.19209 0.41157 0.42074 0.56445 0.68555 0.30577 0.5296 0.39749 1.0228 0.2754 1.4785-0.14109 0.45057-0.49483 0.8394-1.0606 1.166l-5.668 3.2734-1.668-2.8887-1.084 0.625 1.668 2.8887-2.0762 1.1992 0.74024 1.2812 2.0762-1.1992 0.98047 1.6973 1.082-0.625-0.98047-1.6973 5.7422-3.3144c0.87866-0.5073 1.4195-1.141 1.623-1.9004 0.20348-0.75943 0.0494-1.5839-0.46485-2.4746-0.22237-0.38517-0.48897-0.7213-0.79883-1.0078-0.32884-0.2916-0.67169-0.49568-1.0273-0.61133zm5.4844 8.166-5.5058 3.1797c-1.324 0.76443-2.1243 1.6984-2.4004 2.8047-0.29506 1.1012-0.0981 2.2478 0.58985 3.4394 0.47255 0.81849 1.0519 1.4465 1.7383 1.8848 0.66737 0.43321 1.3906 0.65836 2.1699 0.67383l-1.752 1.0117 0.70898 1.2266 9.4961-5.4824-0.74024-1.2812-4.9824 2.877c-1.0712 0.61849-2.0772 0.80678-3.0195 0.56445-0.96133-0.24742-1.7374-0.88314-2.3281-1.9062-0.52815-0.91478-0.67601-1.7682-0.44336-2.5605 0.23265-0.79232 0.84112-1.4731 1.8281-2.043l5.3809-3.1074zm345.96 11.008c-0.96356-0.0267-1.8518 0.1905-2.6641 0.65234-0.8123 0.46185-1.4712 1.1311-1.9785 2.0098-0.50741 0.87866-0.763 1.7918-0.76367 2.7383 0.006 0.93439 0.2579 1.8172 0.75586 2.6504 0.5049 0.82111 1.2216 1.5001 2.1484 2.0352 0.9268 0.53505 1.878 0.80397 2.8555 0.80664 0.97746 0.003 1.894-0.24696 2.7461-0.75 0.84704-0.52204 1.5504-1.2711 2.1133-2.2461 0.43781-0.7583 0.70614-1.5279 0.80273-2.3066 0.10354-0.7908 0.0241-1.5427-0.23828-2.2559l-1.248 0.24414c0.20076 0.59738 0.26747 1.2056 0.19921 1.8242-0.0803 0.61164-0.29033 1.211-0.63085 1.8008-0.60459 1.0472-1.4063 1.7415-2.4043 2.0801-1.01 0.33168-2.0299 0.24761-3.0586-0.25l4.5879-7.9434-0.38672-0.24804c-0.93886-0.54206-1.8844-0.82207-2.8359-0.8418zm0.10351 1.3418c0.48167 0.0414 0.96914 0.1754 1.4629 0.40429l-3.8887 6.7344c-0.8902-0.62631-1.4466-1.4119-1.6699-2.3594-0.22841-0.9664-0.0789-1.9075 0.44922-2.8223 0.5351-0.92682 1.2746-1.5274 2.2188-1.8008 0.46957-0.14616 0.94607-0.19762 1.4277-0.15625zm-340.63 0.4375-0.41406 1.2012c0.61772 0.12482 1.1781 0.37182 1.6797 0.74023 0.48955 0.37536 0.90362 0.85747 1.2441 1.4473 0.60459 1.0472 0.80533 2.0875 0.59961 3.1211-0.21774 1.0405-0.79882 1.8834-1.7441 2.5254l-4.5879-7.9453-0.40625 0.21094c-0.93884 0.54204-1.6556 1.221-2.1484 2.0352-0.50508 0.82112-0.76157 1.6984-0.76757 2.6328s0.24464 1.842 0.75195 2.7207c0.5073 0.87867 1.171 1.5535 1.9902 2.0273 0.81232 0.46187 1.7033 0.68654 2.6738 0.67188 0.96356-0.0267 1.9091-0.30866 2.8359-0.84375 0.92681-0.5351 1.6359-1.2251 2.127-2.0703 0.49102-0.84518 0.73226-1.7624 0.72266-2.752-0.0286-0.99458-0.32577-1.9782-0.88867-2.9531-0.43781-0.75831-0.96953-1.3746-1.5957-1.8477-0.63312-0.48505-1.3235-0.79246-2.0723-0.92187zm-3.4805 2.8535 3.8887 6.7344c-0.9875 0.45779-1.9487 0.54592-2.8809 0.26562-0.95115-0.28538-1.6906-0.88599-2.2188-1.8008-0.53509-0.92681-0.68459-1.8679-0.44922-2.8223 0.2164-0.95946 0.76995-1.7506 1.6602-2.377zm337.77 5.1211c-0.82928 0.0187-1.5872 0.26313-2.2754 0.73243-0.6933 0.4503-1.2774 1.0838-1.75 1.9023-0.54207 0.93885-0.8241 1.9003-0.8457 2.8828-0.0147 0.97051 0.22384 1.8775 0.71484 2.7227 0.49101 0.84519 1.2002 1.5372 2.127 2.0723 0.9268 0.53508 1.8855 0.80681 2.875 0.81641 0.97745 0.003 1.8817-0.24618 2.7148-0.74414 0.84009-0.50999 1.5322-1.233 2.0742-2.1719 0.46558-0.80646 0.72868-1.6264 0.79101-2.457 0.0503-0.83757-0.12299-1.6201-0.52148-2.3476l-1.2031 0.58203c0.28871 0.58396 0.40864 1.1834 0.35937 1.7969-0.0493 0.61351-0.23783 1.2038-0.56445 1.7695-0.39612 0.68608-0.90287 1.2177-1.5234 1.5976-0.62567 0.36098-1.3066 0.53799-2.041 0.53125-0.73947-0.0257-1.4767-0.24991-2.2109-0.67383-0.72219-0.41695-1.2779-0.93886-1.6699-1.5664-0.38498-0.63955-0.57234-1.3178-0.56054-2.0332 0.007-0.73436 0.2074-1.4448 0.60351-2.1308 0.32662-0.56572 0.75087-1.0188 1.2695-1.3613 0.50668-0.3494 1.0842-0.54596 1.7344-0.58789zm-326.36 2.3848-5.5059 3.1797c-1.3361 0.77137-2.1495 1.6971-2.4395 2.7793-0.29694 1.0701-0.1001 2.2009 0.58789 3.3926 0.48646 0.84256 1.1004 1.4918 1.8438 1.9453 0.7243 0.44838 1.5007 0.66656 2.3281 0.65429-0.49506 0.67108-0.74162 1.3972-0.73828 2.1816-0.003 0.77231 0.22492 1.5571 0.68359 2.3516 0.45169 0.78234 1.0075 1.3835 1.668 1.8047 0.66041 0.42127 1.3761 0.63339 2.1484 0.63672l-1.7324 1 0.70898 1.2285 9.4961-5.4824-0.74023-1.2832-4.9824 2.877c-1.0713 0.61849-2.0715 0.81984-3 0.60156-0.94742-0.22331-1.7027-0.82385-2.2656-1.7988-0.50731-0.87869-0.63719-1.7005-0.39062-2.4688 0.23961-0.78025 0.85283-1.4555 1.8398-2.0254l5.3809-3.1074-0.74023-1.2812-4.9844 2.877c-1.0713 0.61849-2.0696 0.81788-2.998 0.59961-0.94049-0.21133-1.6958-0.80991-2.2656-1.7969-0.50036-0.86664-0.62739-1.6848-0.38086-2.4531 0.23961-0.78025 0.85284-1.4536 1.8398-2.0234l5.3789-3.1074zm286.77 2.9785-0.74024 1.2832 13.396 7.7344 0.74023-1.2832zm32.529 6.2773c-0.28827 0.0111-0.56776 0.0563-0.84179 0.13477-1.1012 0.29507-1.9956 1.0369-2.6836 2.2285-0.47252 0.81849-0.72727 1.6357-0.76367 2.4492-0.0415 0.79455 0.12575 1.5322 0.50195 2.2148l-1.752-1.0117-0.70898 1.2285 9.498 5.4824 0.73828-1.2812-4.9824-2.877c-1.0713-0.6185-1.7368-1.3967-1.998-2.334-0.26646-0.95627-0.10437-1.9456 0.48632-2.9687 0.52816-0.91479 1.1936-1.4694 1.9961-1.6641 0.80255-0.19464 1.6966-0.007 2.6836 0.5625l5.3809 3.1074 0.74024-1.2832-5.5078-3.1797c-0.993-0.57331-1.9223-0.84191-2.7871-0.80859zm-342.1 1.2793-13.396 7.7363 0.74024 1.2812 13.396-7.7344zm313.14 0.48633c-0.96356-0.0267-1.8518 0.19049-2.6641 0.65234s-1.4712 1.1311-1.9785 2.0098c-0.50741 0.87868-0.76106 1.7918-0.76172 2.7383 0.006 0.93439 0.2579 1.8172 0.75586 2.6504 0.5049 0.82111 1.2197 1.5001 2.1465 2.0352 0.92687 0.53509 1.88 0.80398 2.8574 0.80664 0.97746 0.003 1.892-0.24696 2.7441-0.75 0.84705-0.52203 1.5523-1.2711 2.1152-2.2461 0.4378-0.75831 0.70425-1.5278 0.80078-2.3066 0.10354-0.79081 0.024-1.5427-0.23828-2.2559l-1.248 0.24414c0.20075 0.59737 0.26748 1.2056 0.19922 1.8242-0.0803 0.61164-0.29034 1.211-0.63086 1.8008-0.60459 1.0472-1.4064 1.7414-2.4043 2.0801-1.01 0.33167-2.0279 0.24763-3.0566-0.25l4.5859-7.9434-0.38672-0.24805c-0.93885-0.54206-1.8844-0.82206-2.8359-0.84179zm0.10352 1.3418c0.48166 0.0414 0.96914 0.17541 1.4629 0.4043l-3.8867 6.7344c-0.8902-0.6263-1.4485-1.4119-1.6719-2.3594-0.2284-0.9664-0.077-1.9075 0.45117-2.8223 0.5351-0.92682 1.2746-1.5274 2.2188-1.8008 0.46957-0.14616 0.94412-0.19761 1.4258-0.15625zm-312.12 3.5039-0.41406 1.2012c0.61774 0.12485 1.1781 0.37185 1.6797 0.74023 0.48953 0.37535 0.9036 0.85744 1.2441 1.4473 0.60459 1.0472 0.80534 2.0876 0.59961 3.1211-0.21773 1.0405-0.79883 1.8834-1.7441 2.5254l-4.5879-7.9453-0.40625 0.21094c-0.93886 0.54205-1.6556 1.2209-2.1484 2.0352-0.50511 0.8211-0.76158 1.6984-0.76758 2.6328-0.006 0.93444 0.24468 1.8421 0.75196 2.7207 0.50731 0.87869 1.171 1.5535 1.9902 2.0274 0.81229 0.46181 1.7033 0.68647 2.6738 0.67187 0.96354-0.0267 1.9091-0.30865 2.8359-0.84375 0.92682-0.5351 1.636-1.2251 2.127-2.0703 0.49103-0.8452 0.73226-1.7625 0.72266-2.752-0.0286-0.99459-0.32577-1.9781-0.88868-2.9531-0.43778-0.75825-0.96953-1.3746-1.5957-1.8477-0.63312-0.48506-1.3235-0.79246-2.0723-0.92187zm-3.4805 2.8516 3.8887 6.7344c-0.9875 0.4578-1.9487 0.54786-2.8809 0.26757-0.95116-0.28538-1.6906-0.88596-2.2188-1.8008-0.53509-0.9268-0.6846-1.8679-0.44922-2.8223 0.21639-0.95947 0.76995-1.7526 1.6602-2.3789zm302.83 0.008-0.74023 1.2832 5.7051 3.293c-0.84318 0.0428-1.6011 0.28721-2.2754 0.73243-0.67941 0.42623-1.2427 1.0246-1.6875 1.7949-0.51424 0.89071-0.77547 1.815-0.7832 2.7734-0.0198 0.95151 0.2208 1.8446 0.71875 2.6777 0.49795 0.83315 1.2154 1.5204 2.1543 2.0625 0.9389 0.54207 1.8947 0.82127 2.8652 0.83594 0.97051 0.0147 1.8672-0.22111 2.6934-0.70703 0.82619-0.48593 1.4975-1.1757 2.0117-2.0664 0.45865-0.79441 0.70028-1.6014 0.72461-2.4219 0.0313-0.83253-0.16061-1.6254-0.57617-2.3789l1.877 1.084 0.70898-1.2266zm34.424 2.6133c-0.26274 0.0138-0.51856 0.0579-0.76758 0.13477-1.0081 0.30065-1.8702 1.0708-2.5859 2.3106-0.43086 0.74626-0.72626 1.524-0.88672 2.3301-0.17252 0.79911-0.19382 1.5576-0.0625 2.2754l1.291-0.0254c-0.11976-0.59874-0.11538-1.2316 0.0117-1.8965 0.11505-0.67182 0.34589-1.3083 0.69336-1.9102 0.5073-0.87867 1.1093-1.4217 1.8066-1.6289 0.68535-0.21417 1.4373-0.0859 2.2559 0.38672l0.57812 0.33398-1.7402 3.0156c-0.73663 1.2759-1.0299 2.3518-0.87695 3.2266 0.15997 0.8627 0.64474 1.5266 1.4512 1.9922 0.83052 0.4795 1.678 0.55083 2.5449 0.21679 0.86689-0.33404 1.6072-1.0306 2.2188-2.0898 0.44474-0.77034 0.6876-1.5111 0.73047-2.2246 0.0498-0.72554-0.0893-1.3754-0.41602-1.9492l1.4805 0.85547 0.70898-1.2285-5.8848-3.3984c-0.91175-0.5264-1.7626-0.76799-2.5508-0.72657zm-297.33 0.18946c-0.25026 0.006-0.5147 0.0244-0.79297 0.0566l-13.375 1.3906 0.72852 1.2637 10.135-1.084-6.0059 8.2344 0.77148 1.3359 7.0293-9.7148 1.1602-0.11719c0.73066-0.0687 1.3071-0.0158 1.7285 0.1582 0.41446 0.16193 0.74591 0.45926 0.99609 0.89258 0.38918 0.67408 0.4828 1.391 0.2793 2.1504l1.3008 0.043c0.12208-0.45564 0.13957-0.92371 0.0547-1.4043-0.0849-0.48059-0.25935-0.94884-0.52344-1.4062-0.41-0.71014-0.94629-1.2098-1.6113-1.5-0.49875-0.21758-1.1242-0.31706-1.875-0.29883zm300.62 2.6738 1.5527 0.89648c0.47998 0.61413 0.73914 1.2781 0.77734 1.9902 0.0262 0.70521-0.16898 1.4184-0.58594 2.1406-0.43781 0.75831-0.93601 1.2574-1.4922 1.498-0.56822 0.23364-1.1279 0.19077-1.6816-0.12891-1.1314-0.65323-1.2292-1.793-0.29102-3.418zm-32 0.13476c0.74636 0.0137 1.4809 0.22953 2.2031 0.64649 0.72225 0.41699 1.2771 0.94443 1.6621 1.584 0.39201 0.62755 0.58766 1.3031 0.58789 2.0254-0.005 0.70333-0.19787 1.3868-0.58008 2.0488-0.38917 0.67405-0.89223 1.1946-1.5059 1.5625-0.61872 0.34891-1.3004 0.51562-2.0469 0.50195-0.73942-0.0257-1.4711-0.24707-2.1934-0.66406-0.72219-0.41696-1.278-0.9389-1.6699-1.5664-0.38485-0.63958-0.57497-1.3103-0.57031-2.0137-0.00023-0.72233 0.19287-1.4197 0.58203-2.0938 0.38222-0.66201 0.88324-1.1686 1.502-1.5176 0.61362-0.36793 1.2898-0.5394 2.0293-0.51367zm-297.1 1.9473-13.396 7.7344 0.74024 1.2812 5.7051-3.293c-0.38453 0.75161-0.55231 1.5294-0.50391 2.3359 0.0294 0.80149 0.26617 1.5871 0.71094 2.3574 0.51423 0.89068 1.1835 1.5804 2.0098 2.0664 0.81416 0.49285 1.7072 0.73146 2.6777 0.7168 0.9705-0.0147 1.9244-0.2939 2.8633-0.83594 0.93886-0.54206 1.6583-1.2294 2.1562-2.0625 0.49798-0.83314 0.74211-1.729 0.73437-2.6875-0.008-0.95852-0.26897-1.8828-0.7832-2.7734-0.45867-0.79445-1.036-1.4066-1.7344-1.8379-0.70534-0.44333-1.4893-0.67454-2.3496-0.69141l1.8789-1.084zm-1.8164 3.3594c0.73946-0.0257 1.4212 0.14098 2.0469 0.50196 0.60668 0.35588 1.1022 0.86531 1.4844 1.5273 0.38916 0.67401 0.58976 1.3686 0.60156 2.084-0.007 0.7103-0.20285 1.3858-0.58789 2.0254-0.39199 0.62753-0.94968 1.1495-1.6719 1.5664-0.72219 0.41694-1.4539 0.63833-2.1934 0.66406-0.7464 0.0137-1.4226-0.15779-2.0293-0.51367-0.62568-0.36097-1.1323-0.87872-1.5215-1.5527-0.38224-0.66204-0.5697-1.3483-0.5625-2.0586-0.0118-0.71538 0.17832-1.3861 0.57031-2.0137 0.38505-0.63957 0.93796-1.169 1.6602-1.5859 0.72219-0.41696 1.4567-0.63086 2.2031-0.64453zm29.691 0.0996c-0.97746 0.003-1.9286 0.27154-2.8555 0.80664-0.92681 0.5351-1.636 1.2251-2.127 2.0703-0.49796 0.83315-0.73928 1.7346-0.72461 2.7051 0.0147 0.97051 0.28632 1.9134 0.81445 2.8281 0.52814 0.91476 1.2079 1.6212 2.041 2.1191 0.83315 0.49799 1.7393 0.74681 2.7168 0.74414 0.97747-0.003 1.9287-0.27155 2.8555-0.80664 0.92682-0.5351 1.6359-1.2251 2.127-2.0703 0.49104-0.84519 0.73509-1.7569 0.73243-2.7344-0.0147-0.97051-0.28632-1.9134-0.81446-2.8281-0.52814-0.91476-1.2079-1.6212-2.041-2.1191-0.84519-0.49101-1.7541-0.72952-2.7246-0.71485zm0.0879 1.4434c0.73948-0.0257 1.4212 0.14104 2.0469 0.50195 0.60669 0.35588 1.105 0.87085 1.4941 1.5449 0.38915 0.67407 0.58977 1.3686 0.60157 2.084-0.007 0.71029-0.20286 1.3858-0.58789 2.0254-0.39196 0.62758-0.94968 1.1494-1.6719 1.5664-0.72219 0.41694-1.4539 0.63839-2.1934 0.66406-0.7464 0.0137-1.4226-0.1578-2.0293-0.51367-0.62564-0.36092-1.1323-0.87866-1.5215-1.5527-0.3892-0.67407-0.57947-1.3659-0.57226-2.0762-0.0118-0.71533 0.17835-1.3861 0.57031-2.0137 0.39199-0.62753 0.94773-1.1494 1.6699-1.5664 0.7222-0.41694 1.4539-0.63833 2.1934-0.66406zm291.84 0.90234c-0.28642 0.006-0.56539 0.0447-0.83594 0.11719-1.0752 0.27796-1.9566 1.0135-2.6445 2.2051-0.48647 0.84257-0.74059 1.6998-0.76172 2.5703-0.0262 0.85152 0.17329 1.6314 0.59765 2.3418-0.82881-0.0933-1.5823 0.0579-2.2598 0.45312-0.6706 0.38317-1.2347 0.97122-1.6934 1.7656-0.45169 0.78238-0.69594 1.5652-0.73047 2.3477-0.0345 0.78251 0.1403 1.5091 0.52344 2.1797l-1.7324-1-0.70899 1.2266 9.4961 5.4844 0.74023-1.2832-4.9824-2.877c-1.0713-0.61849-1.7443-1.3837-2.0195-2.2969-0.28035-0.9322-0.13907-1.8864 0.42383-2.8613 0.5073-0.87867 1.1548-1.4036 1.9434-1.5742 0.7956-0.18261 1.6869 0.0122 2.6738 0.58203l5.3809 3.1055 0.74024-1.2812-4.9844-2.877c-1.0713-0.6185-1.7443-1.3837-2.0195-2.2969-0.2873-0.92016-0.14602-1.8743 0.42383-2.8613 0.50035-0.86664 1.145-1.386 1.9336-1.5566 0.7956-0.18262 1.6869 0.0122 2.6738 0.58203l5.3809 3.1055 0.74023-1.2812-5.5078-3.1797c-1.002-0.57853-1.9318-0.85831-2.791-0.83985zm-29.139 2.1074c-0.9705-0.0147-1.8719 0.22665-2.7051 0.72461-0.83314 0.49796-1.5148 1.2044-2.043 2.1191-0.52816 0.91478-0.79979 1.8576-0.81446 2.8281-0.0147 0.9705 0.22384 1.8794 0.71485 2.7246 0.491 0.84519 1.2001 1.5352 2.127 2.0703 0.92686 0.53509 1.88 0.80398 2.8574 0.80664 0.97746 0.003 1.8872-0.24141 2.7324-0.73242 0.83315-0.49796 1.5148-1.2044 2.043-2.1191 0.52816-0.91478 0.79979-1.8576 0.81446-2.8281 0.003-0.97746-0.24619-1.8836-0.74414-2.7168-0.491-0.84519-1.2001-1.5352-2.127-2.0703-0.9268-0.53506-1.878-0.80398-2.8555-0.80664zm-0.0859 1.4434c0.73941 0.0257 1.4692 0.2471 2.1914 0.66406 0.72225 0.41698 1.2799 0.93889 1.6719 1.5664 0.392 0.62755 0.58766 1.3031 0.58789 2.0254-0.005 0.70334-0.20264 1.3904-0.5918 2.0644-0.38917 0.67405-0.89028 1.1965-1.5039 1.5644-0.61871 0.34891-1.3004 0.51562-2.0469 0.50195-0.73942-0.0257-1.4711-0.24707-2.1934-0.66406-0.72219-0.41696-1.278-0.9389-1.6699-1.5664-0.38487-0.63959-0.57498-1.3103-0.57031-2.0137-0.00023-0.72233 0.19287-1.4216 0.58203-2.0957 0.38916-0.67405 0.893-1.1843 1.5117-1.5332 0.61362-0.36794 1.2918-0.53941 2.0312-0.51367zm-285.96 3.8613c-0.97745 0.003-1.9286 0.27155-2.8555 0.80664-0.92682 0.5351-1.636 1.2251-2.127 2.0703-0.49796 0.83314-0.73928 1.7365-0.72461 2.707 0.0147 0.97051 0.28632 1.9134 0.81445 2.8281 0.52818 0.91483 1.2079 1.6212 2.041 2.1191 0.83315 0.498 1.7393 0.74486 2.7168 0.74219 0.97746-0.003 1.9286-0.27154 2.8555-0.80664 0.92681-0.5351 1.6359-1.2251 2.127-2.0703 0.49104-0.84519 0.73509-1.7569 0.73242-2.7344-0.0147-0.9705-0.28628-1.9133-0.81445-2.8281-0.52814-0.91477-1.2079-1.6212-2.041-2.1191-0.84519-0.491-1.7541-0.72951-2.7246-0.71485zm32.24 0.59375-13.396 7.7344 0.74024 1.2832 13.396-7.7344zm-32.152 0.84961c0.73946-0.0257 1.4212 0.14098 2.0469 0.50196 0.60668 0.35588 1.105 0.8709 1.4941 1.5449 0.38918 0.67407 0.58976 1.3706 0.60156 2.0859-0.007 0.71029-0.20285 1.3839-0.58789 2.0234-0.39199 0.62752-0.94968 1.1494-1.6719 1.5664-0.7222 0.41694-1.452 0.63833-2.1914 0.66406-0.7464 0.0137-1.4246-0.15584-2.0312-0.51172-0.62568-0.36096-1.1323-0.87866-1.5215-1.5527-0.38916-0.67401-0.57946-1.3678-0.57226-2.0781-0.0118-0.71538 0.17832-1.3861 0.57031-2.0137 0.392-0.62752 0.94773-1.1494 1.6699-1.5664 0.7222-0.41694 1.4539-0.63833 2.1934-0.66407zm273.68 2.0527-0.63672 1.1016 6.2344 10.844-12.539 0.0801-0.63672 1.1016 12.639 7.2969 0.74024-1.2832-10.057-5.8066 11.316-0.0859 0.36524-0.63086-5.6387-9.875 10.111 5.8359 0.74024-1.2812zm-241.14 2.8887c-0.97051 0.0147-1.9319 0.2967-2.8828 0.8457-0.93885 0.54205-1.6563 1.2294-2.1543 2.0625-0.49791 0.83321-0.73653 1.7262-0.7168 2.6777 0.008 0.95846 0.26897 1.8828 0.78321 2.7734 0.45867 0.79445 1.0408 1.4141 1.7461 1.8574 0.69839 0.4313 1.4701 0.65784 2.3184 0.68164l-1.877 1.084 0.70898 1.2285 13-7.5059-0.74023-1.2812-5.291 3.0547c0.38452-0.7516 0.5626-1.5286 0.5332-2.3301-0.0484-0.80658-0.29546-1.5949-0.74023-2.3652-0.52119-0.90271-1.185-1.5954-1.9922-2.0762-0.8262-0.4859-1.7248-0.72163-2.6953-0.70703zm0.0606 1.4824c0.73944-0.0257 1.4232 0.14098 2.0488 0.50195 0.61364 0.36792 1.11 0.8829 1.4922 1.5449 0.38915 0.67401 0.58976 1.3686 0.60156 2.084-0.007 0.71029-0.20285 1.3858-0.58789 2.0254-0.39199 0.62752-0.94968 1.1494-1.6719 1.5664-0.7222 0.41698-1.4464 0.63556-2.1738 0.65429-0.7464 0.0137-1.4282-0.15498-2.0469-0.5039-0.62568-0.36098-1.1343-0.87677-1.5234-1.5508-0.38223-0.66204-0.57249-1.3558-0.57227-2.0781 0.00024-0.72234 0.19591-1.3959 0.58789-2.0234 0.373-0.63261 0.92039-1.1572 1.6426-1.5742 0.7222-0.41697 1.4567-0.63282 2.2031-0.64649zm270.85 1.1894c-0.50731 0.87867-0.77246 1.7144-0.79492 2.5039-0.0155 0.77743 0.20968 1.5007 0.67382 2.1699l-1.8594-1.0742-0.70898 1.2266 9.4961 5.4844 0.74023-1.2832-4.8379-2.793c-1.1074-0.63935-1.8046-1.4197-2.0918-2.3398-0.28724-0.92013-0.14321-1.8779 0.43359-2.877l0.19531-0.29687zm-294.4 1.5586-12.639 7.2969 0.63672 1.1016 12.508 0.0234-6.2012 10.9 0.63477 1.0996 12.639-7.2949-0.74024-1.2832-10.057 5.8066 5.584-9.8438-0.36524-0.63281-11.371-0.0547 10.111-5.8379zm31.295 7.5469-0.41407 1.2012c0.61774 0.12485 1.1781 0.37184 1.6797 0.74024 0.48953 0.37534 0.9036 0.85744 1.2441 1.4473 0.60459 1.0472 0.80534 2.0876 0.59961 3.1211-0.21774 1.0405-0.80078 1.8833-1.7461 2.5254l-4.5859-7.9453-0.4082 0.21093c-0.93885 0.54205-1.6536 1.221-2.1465 2.0352-0.5051 0.82111-0.76158 1.6984-0.76758 2.6328-0.006 0.93444 0.24468 1.8421 0.75196 2.7207 0.50731 0.87869 1.171 1.5535 1.9902 2.0273 0.81233 0.46188 1.7033 0.68654 2.6738 0.67187 0.96355-0.0267 1.9091-0.30865 2.8359-0.84374 0.92682-0.53511 1.6359-1.2251 2.127-2.0703 0.49103-0.84519 0.73226-1.7624 0.72266-2.752-0.0286-0.99459-0.32577-1.9782-0.88868-2.9531-0.43778-0.75825-0.96953-1.3746-1.5957-1.8476-0.63312-0.48506-1.3235-0.79247-2.0723-0.92188zm260.79 0.27344c-0.9705-0.0147-1.8719 0.22666-2.7051 0.72461-0.83315 0.49796-1.5148 1.2044-2.043 2.1191-0.52816 0.91478-0.79979 1.8576-0.81446 2.8281-0.0147 0.9705 0.22384 1.8794 0.71485 2.7246 0.491 0.84519 1.2002 1.5352 2.127 2.0703 0.92681 0.53505 1.878 0.80397 2.8555 0.80664 0.97745 0.003 1.8892-0.24142 2.7344-0.73242 0.83314-0.49796 1.5148-1.2044 2.043-2.1191 0.52816-0.91478 0.79979-1.8576 0.81446-2.8281 0.003-0.97746-0.24619-1.8836-0.74414-2.7168-0.491-0.84518-1.2002-1.5352-2.127-2.0703-0.9268-0.53505-1.878-0.80397-2.8555-0.80664zm-0.0879 1.4434c0.73948 0.0257 1.4712 0.24711 2.1934 0.66406 0.72219 0.41696 1.2799 0.93887 1.6719 1.5664 0.39201 0.62755 0.58766 1.3031 0.58789 2.0254-0.005 0.70333-0.20263 1.3904-0.5918 2.0644-0.38916 0.67404-0.89028 1.1965-1.5039 1.5645-0.61872 0.34891-1.3004 0.51562-2.0469 0.50195-0.73947-0.0257-1.4712-0.24711-2.1934-0.66406-0.72219-0.41696-1.2799-0.93886-1.6719-1.5664-0.38481-0.63955-0.57303-1.3103-0.56836-2.0137-0.00023-0.72234 0.19287-1.4217 0.58203-2.0957 0.38916-0.67405 0.893-1.1862 1.5117-1.5352 0.61362-0.3679 1.2899-0.53739 2.0293-0.51172zm-264.19 1.1348 3.8867 6.7344c-0.9875 0.4578-1.9467 0.54787-2.8789 0.26758-0.95116-0.28538-1.6906-0.88596-2.2188-1.8008-0.53509-0.92681-0.6846-1.8679-0.44922-2.8223 0.21639-0.95946 0.76994-1.7526 1.6602-2.3789zm253.4 3.207c-0.32461 0.11751-0.63296 0.31622-0.92382 0.59765-0.30292 0.27448-0.55715 0.59203-0.76563 0.95313-0.52815 0.91478-0.68631 1.771-0.47266 2.5684 0.2206 0.78536 0.76422 1.4293 1.6309 1.9297l1.1738 0.67578-0.98047 1.6973 1.084 0.62696 0.98047-1.6973 8.4121 4.8574 0.74023-1.2832-8.4121-4.8574 1.666-2.8887-1.082-0.625-1.6895 2.9258-1.1191-0.64649c-0.58976-0.34051-0.95463-0.73693-1.0957-1.1875-0.13412-0.46261-0.0423-0.96976 0.27734-1.5234 0.32662-0.56572 0.75483-0.94621 1.2832-1.1387zm-244.98 6.1172c-1.2896-0.01-2.5477 0.34-3.7754 1.0488-1.2277 0.70884-2.155 1.6216-2.7793 2.7363-0.63635 1.1216-0.92246 2.3469-0.86132 3.6758 0.049 1.3358 0.4591 2.6718 1.2305 4.0078l2.9707 5.1445 12.639-7.2969-2.9707-5.1445c-0.77137-1.336-1.7176-2.3628-2.8379-3.0801-1.1324-0.71045-2.3378-1.0751-3.6152-1.0918zm0.0703 1.5c1.0344 0.0127 2.0146 0.30552 2.9395 0.87891 0.91282 0.58034 1.6888 1.4238 2.3281 2.5312l2.1582 3.7383-10.328 5.9629-2.1562-3.7383c-0.63937-1.1074-0.97758-2.2053-1.0117-3.293-0.0462-1.0807 0.1907-2.0753 0.70899-2.9844 0.50629-0.90212 1.2643-1.6448 2.2754-2.2285 1.0111-0.58343 2.0395-0.87252 3.0859-0.86719zm243.95 1.7285c-0.50731 0.87867-0.77246 1.7125-0.79492 2.502-0.0155 0.77743 0.20968 1.5007 0.67382 2.1699l-1.8594-1.0742-0.70899 1.2285 9.4961 5.4824 0.74023-1.2812-4.8379-2.7949c-1.1074-0.63935-1.8046-1.4178-2.0918-2.3379-0.28723-0.92013-0.14319-1.8799 0.4336-2.8789l0.19531-0.29688zm-2.2832 9.334c-0.96355-0.0267-1.8518 0.1905-2.6641 0.65235-0.8123 0.46184-1.4712 1.1311-1.9785 2.0098-0.50741 0.87867-0.76106 1.7918-0.76172 2.7383 0.006 0.9344 0.2579 1.8192 0.75586 2.6524 0.5049 0.82112 1.2197 1.4981 2.1465 2.0332 0.92681 0.53505 1.88 0.80398 2.8574 0.80664 0.97746 0.003 1.892-0.24695 2.7441-0.75 0.84705-0.52202 1.5523-1.2711 2.1152-2.2461 0.4378-0.7583 0.70419-1.5259 0.80078-2.3047 0.10354-0.7908 0.0241-1.5427-0.23828-2.2559l-1.2461 0.24219c0.20076 0.59737 0.26553 1.2056 0.19727 1.8242-0.0803 0.61163-0.29035 1.211-0.63086 1.8008-0.60459 1.0472-1.4063 1.7415-2.4043 2.0801-1.01 0.33168-2.028 0.2476-3.0566-0.25l4.5859-7.9434-0.38672-0.24805c-0.93885-0.54206-1.8844-0.82206-2.8359-0.8418zm0.10352 1.3418c0.48166 0.0414 0.96914 0.1754 1.4629 0.4043l-3.8867 6.7344c-0.8902-0.6263-1.4485-1.4119-1.6719-2.3594-0.22841-0.96641-0.077-1.9075 0.45117-2.8223 0.53509-0.92681 1.2746-1.5274 2.2188-1.8008 0.46958-0.14616 0.94412-0.19762 1.4258-0.15625zm-9.5879 7.5703c-0.49391 0.00071-0.98571 0.0894-1.4727 0.26563-1.2985 0.47001-2.4125 1.5121-3.3438 3.125l-2.7305 4.7305 12.637 7.2969 0.77149-1.3359-3.9902-2.3047 1.9609-3.3926c0.93121-1.6129 1.2809-3.0967 1.0508-4.4492-0.24221-1.3596-1.0367-2.4287-2.3848-3.207-0.84256-0.48645-1.6749-0.7297-2.498-0.72852zm-0.49219 1.5293c0.71148-0.0857 1.4514 0.0921 2.2188 0.53516 0.99901 0.57678 1.5844 1.3562 1.7559 2.3379 0.15945 0.97474-0.12297 2.088-0.8457 3.3398l-1.9375 3.3594-6.3203-3.6484 1.9394-3.3594c0.72273-1.2518 1.5524-2.0483 2.4883-2.3906 0.23095-0.0873 0.46401-0.14525 0.70117-0.17383zm-113.92 7.1348v6.5879c-0.45866-0.70883-1.0488-1.2441-1.7715-1.6055-0.70883-0.37527-1.5089-0.5625-2.3984-0.5625-1.0285 0-1.9591 0.23642-2.793 0.70898-0.83392 0.45866-1.4884 1.1112-1.9609 1.959-0.47256 0.84782-0.70703 1.8143-0.70703 2.8984s0.23447 2.0487 0.70703 2.8965c0.47255 0.84782 1.127 1.5079 1.9609 1.9805 0.83391 0.47255 1.7645 0.70898 2.793 0.70898 0.9173 0 1.7382-0.19286 2.4609-0.58203 0.73663-0.38916 1.3267-0.95283 1.7715-1.6894v2.168h1.418v-15.469zm18.186 0v15.469h1.4785v-15.469zm-59.381 0.875v14.594h1.4785v-11.611l5.7344 9.7559h0.72851l5.7344-9.8203v11.676h1.4805v-14.594h-1.2715l-6.2754 10.82-6.3379-10.82zm24.08 3.5449c-1.0563 0-2.0076 0.23642-2.8555 0.70898-0.84781 0.47256-1.5155 1.1327-2.002 1.9805-0.48645 0.84782-0.73047 1.8068-0.73047 2.877s0.24402 2.0291 0.73047 2.877c0.48645 0.84782 1.1541 1.5135 2.002 2 0.84783 0.47255 1.7992 0.70898 2.8555 0.70898s2.0076-0.23643 2.8555-0.70898c0.84781-0.48646 1.5079-1.1522 1.9805-2 0.48645-0.84782 0.73047-1.8068 0.73047-2.877s-0.24402-2.0291-0.73047-2.877c-0.47255-0.84781-1.1327-1.5079-1.9805-1.9805-0.84782-0.47256-1.7992-0.70898-2.8555-0.70898zm26.971 0c-1.0146 0-1.9319 0.23642-2.752 0.70898-0.80612 0.47256-1.4454 1.1327-1.918 1.9805-0.45865 0.84782-0.6875 1.8068-0.6875 2.877s0.24207 2.0291 0.72852 2.877c0.48645 0.84782 1.1617 1.5135 2.0234 2 0.87561 0.47255 1.8762 0.70898 3.002 0.70898 0.87561 0 1.6738-0.15126 2.3965-0.45703 0.73664-0.30577 1.3495-0.7522 1.8359-1.3359l-0.83398-0.95898c-0.41696 0.47255-0.91062 0.8338-1.4805 1.084-0.56984 0.23628-1.1959 0.35547-1.877 0.35547-1.2092 0-2.2097-0.34803-3.002-1.043-0.79222-0.70882-1.2291-1.6318-1.3125-2.7715h9.1719l0.0215-0.45899c0-1.0841-0.22884-2.043-0.6875-2.877-0.45866-0.84781-1.0923-1.5079-1.8984-1.9805-0.80612-0.47256-1.7159-0.70898-2.7305-0.70898zm0 1.2715c1.0702 0 1.9591 0.34045 2.668 1.0215 0.72274 0.66714 1.1332 1.5429 1.2305 2.627h-7.7754c0.0973-1.0841 0.50016-1.9598 1.209-2.627 0.72273-0.68104 1.6117-1.0215 2.668-1.0215zm-26.971 0.0215c0.77832 0 1.4724 0.17965 2.084 0.54101 0.62544 0.34746 1.1135 0.84872 1.4609 1.502 0.34746 0.65324 0.51954 1.3966 0.51954 2.2305 0 0.83392-0.17208 1.5772-0.51954 2.2305-0.34746 0.65324-0.83549 1.1601-1.4609 1.5215-0.61155 0.34746-1.3057 0.52148-2.084 0.52148-0.77832 0-1.48-0.17402-2.1055-0.52148-0.61153-0.36137-1.0976-0.86825-1.459-1.5215-0.34746-0.65323-0.52149-1.3966-0.52149-2.2305 0-0.83391 0.17403-1.5772 0.52149-2.2305 0.36137-0.65324 0.84745-1.1545 1.459-1.502 0.62545-0.36136 1.3272-0.54101 2.1055-0.54101zm13.07 0c0.76442 0 1.4529 0.17965 2.0644 0.54101 0.62544 0.34746 1.1115 0.84872 1.459 1.502 0.36137 0.65324 0.54297 1.3966 0.54297 2.2305 0 0.83392-0.1816 1.5772-0.54297 2.2305-0.34746 0.65324-0.83354 1.1601-1.459 1.5215-0.61154 0.34746-1.3 0.52148-2.0644 0.52148-0.77833 0-1.48-0.17402-2.1055-0.52148-0.61154-0.36137-1.0976-0.86825-1.459-1.5215-0.34746-0.65323-0.52148-1.3966-0.52148-2.2305 0-0.83391 0.17402-1.5772 0.52148-2.2305 0.36138-0.65324 0.84745-1.1545 1.459-1.502 0.62544-0.36136 1.3271-0.54101 2.1055-0.54101zm16.547 19.305c-0.30577 0-0.56301 0.10402-0.77148 0.3125-0.20849 0.20848-0.3125 0.45249-0.3125 0.73047 0 0.29187 0.10401 0.54153 0.3125 0.75 0.20847 0.20849 0.46571 0.3125 0.77148 0.3125s0.563-0.10401 0.77148-0.3125c0.20848-0.20847 0.3125-0.46571 0.3125-0.77148 0-0.27797-0.10402-0.51441-0.3125-0.70899-0.20848-0.20848-0.46571-0.3125-0.77148-0.3125zm-78.285 0.75c-1.4455 0-2.7524 0.31965-3.9199 0.95899-1.1675 0.63933-2.0848 1.5283-2.752 2.668-0.65323 1.1258-0.98047 2.3912-0.98047 3.7949 0 1.4038 0.32724 2.6748 0.98047 3.8144 0.66713 1.1258 1.5769 2.0091 2.7305 2.6484 1.1675 0.63933 2.4745 0.95898 3.9199 0.95898 1.0841 0 2.0846-0.17968 3.002-0.54101 0.93121-0.37527 1.7161-0.91054 2.3555-1.6055l-0.97851-0.98047c-1.1258 1.1675-2.5652 1.752-4.3164 1.752-1.1536 0-2.2033-0.26483-3.1484-0.79296-0.9451-0.52814-1.6884-1.2506-2.2305-2.168-0.52814-0.91727-0.79297-1.9462-0.79297-3.0859s0.26483-2.1686 0.79297-3.0859c0.54205-0.91728 1.2854-1.6398 2.2305-2.168 0.94511-0.52814 1.9948-0.79101 3.1484-0.79101 1.7373 0 3.1767 0.57688 4.3164 1.7305l0.97851-0.98047c-0.63935-0.69494-1.4167-1.2226-2.334-1.584-0.91732-0.36136-1.9179-0.54297-3.002-0.54297zm12.307 3.6699c-1.0563 0-2.0096 0.23645-2.8574 0.70898-0.84781 0.4726-1.5135 1.1327-2 1.9805-0.48645 0.8478-0.73047 1.8068-0.73047 2.877s0.24402 2.0292 0.73047 2.877c0.48646 0.84786 1.1522 1.5136 2 2 0.84782 0.4726 1.8011 0.70898 2.8574 0.70898s2.0077-0.23638 2.8555-0.70898c0.84783-0.4864 1.5079-1.1521 1.9805-2 0.48646-0.8478 0.73047-1.8068 0.73047-2.877s-0.24401-2.0292-0.73047-2.877c-0.47255-0.8478-1.1326-1.5079-1.9805-1.9805-0.84781-0.47253-1.7992-0.70898-2.8555-0.70898zm14.029 0c-0.90341 0-1.7035 0.17968-2.3984 0.54101-0.69492 0.3614-1.2358 0.87584-1.625 1.543v-2.002h-1.418v10.967h1.4805v-5.7539c0-1.237 0.32723-2.2035 0.98047-2.8984 0.66714-0.7088 1.5637-1.0625 2.6895-1.0625 1.0146 0 1.7919 0.29889 2.334 0.89649 0.55594 0.59766 0.83398 1.4658 0.83398 2.6055v6.2129h1.4805v-5.7539c0-1.237 0.32723-2.2035 0.98047-2.8984 0.65324-0.7088 1.5498-1.0625 2.6895-1.0625 1.0007 0 1.7704 0.29889 2.3125 0.89649 0.55593 0.59766 0.83398 1.4658 0.83398 2.6055v6.2129h1.4805v-6.3594c0-1.5427-0.39528-2.7097-1.1875-3.502-0.77832-0.7922-1.8565-1.1875-3.2324-1.1875-0.9729 0-1.841 0.20806-2.6055 0.625-0.75053 0.40306-1.3274 0.96672-1.7305 1.6894-0.33357-0.7644-0.84045-1.3413-1.5215-1.7305-0.66713-0.38913-1.4596-0.58398-2.377-0.58398zm22.318 0c-0.91731 0-1.7438 0.19485-2.4805 0.58398-0.72273 0.3892-1.3072 0.94524-1.752 1.668v-2.1699h-1.4181v15.012h1.4805v-6.1094c0.45867 0.7088 1.0431 1.2517 1.752 1.627 0.72274 0.3614 1.5285 0.54102 2.418 0.54102 1.0424 0 1.9749-0.22883 2.7949-0.6875 0.83392-0.4726 1.4864-1.1327 1.959-1.9805 0.47255-0.8478 0.70898-1.82 0.70898-2.918 0-1.0841-0.23643-2.0506-0.70898-2.8984-0.47256-0.84781-1.1251-1.5003-1.959-1.959-0.83391-0.47253-1.7664-0.70898-2.7949-0.70898zm12.234 0c-0.86172 0-1.6807 0.13241-2.459 0.39648-0.77833 0.2502-1.446 0.61145-2.002 1.084l0.66601 1.1035c0.45866-0.403 1.0091-0.7151 1.6484-0.9375 0.63933-0.23627 1.3051-0.35351 2-0.35351 1.0146-0.00001 1.7863 0.24966 2.3144 0.75 0.52814 0.48646 0.79297 1.2014 0.79297 2.1465v0.66797h-3.4824c-1.4732 0-2.5494 0.28365-3.2305 0.85351-0.66713 0.5698-1.002 1.3208-1.002 2.252 0 0.959 0.36126 1.7306 1.084 2.3144 0.72274 0.58373 1.6968 0.875 2.9199 0.875 0.88951 0 1.6536-0.15885 2.293-0.47852 0.65324-0.31966 1.1469-0.76411 1.4805-1.334v1.709h1.418v-6.7969c0-1.4038-0.38206-2.4592-1.1465-3.168-0.76443-0.72273-1.8634-1.084-3.2949-1.084zm13.986 0c-1.0146 0-1.8695 0.18723-2.5644 0.5625-0.68103 0.37526-1.1955 0.93136-1.543 1.668v-2.1484h-1.418v10.967h1.4805v-5.5879c0-1.2787 0.32724-2.2716 0.98047-2.9805 0.65324-0.70881 1.5554-1.0645 2.709-1.0645l0.35547 0.0215zm11.488 0c-1.3621 0-2.425 0.29126-3.1895 0.875-0.76442 0.58373-1.1465 1.3346-1.1465 2.252 0 0.7366 0.18723 1.3135 0.5625 1.7305 0.38916 0.41693 0.85639 0.71582 1.3984 0.89648 0.54205 0.1668 1.257 0.3332 2.1465 0.5 0.66714 0.1112 1.2024 0.22845 1.6055 0.35352 0.40306 0.1112 0.73592 0.28522 1 0.52148 0.26408 0.2224 0.39648 0.53639 0.39648 0.93946 0 0.5698-0.24401 1.0143-0.73047 1.334-0.47255 0.3058-1.2083 0.45898-2.209 0.45898-0.75053 0-1.473-0.11158-2.168-0.33398-0.69493-0.23627-1.2718-0.53515-1.7305-0.89648l-0.66797 1.168c0.45866 0.3892 1.0923 0.71445 1.8984 0.97852 0.82002 0.2502 1.6749 0.375 2.5644 0.375 1.4177 0 2.5222-0.27805 3.3145-0.83398 0.80611-0.56987 1.209-1.334 1.209-2.293 0-0.70887-0.18724-1.2649-0.5625-1.668-0.37526-0.40307-0.82732-0.68678-1.3555-0.85352-0.52815-0.1668-1.2298-0.3332-2.1055-0.5-0.70882-0.12506-1.2649-0.24427-1.668-0.35547-0.40307-0.12506-0.74352-0.3123-1.0215-0.5625-0.26407-0.2502-0.39648-0.58502-0.39648-1.002 0-0.54207 0.23643-0.97897 0.70898-1.3125 0.48645-0.3336 1.2014-0.5 2.1465-0.5 1.2509 0 2.329 0.31203 3.2324 0.9375l0.64648-1.1875c-0.45865-0.3058-1.0431-0.5498-1.752-0.73047-0.70884-0.1946-1.4181-0.29101-2.127-0.29101zm11.453 0c-1.0563 0-2.0096 0.23645-2.8574 0.70898-0.84782 0.4726-1.5155 1.1327-2.002 1.9805-0.48645 0.8478-0.72851 1.8068-0.72851 2.877s0.24206 2.0292 0.72851 2.877c0.48646 0.84786 1.1541 1.5136 2.002 2 0.84781 0.4726 1.8011 0.70898 2.8574 0.70898s2.0076-0.23638 2.8555-0.70898c0.84782-0.4864 1.5079-1.1521 1.9805-2 0.48645-0.8478 0.73047-1.8068 0.73047-2.877s-0.24402-2.0292-0.73047-2.877c-0.47256-0.8478-1.1326-1.5079-1.9805-1.9805-0.84782-0.47253-1.7992-0.70898-2.8555-0.70898zm14.174 0c-0.9451 0-1.7773 0.18723-2.5 0.5625-0.70882 0.36133-1.2649 0.87577-1.668 1.543v-2.0234h-1.418v10.967h1.4805v-5.7539c0-1.237 0.34048-2.2035 1.0215-2.8984 0.69492-0.7088 1.633-1.0625 2.8145-1.0625 1.0563 0 1.8696 0.29888 2.4394 0.89649 0.56989 0.59766 0.85352 1.4658 0.85352 2.6055v6.2129h1.4805v-6.3594c0-1.5289-0.41039-2.6883-1.2305-3.4805-0.8061-0.80613-1.8975-1.209-3.2734-1.209zm-34.455 0.082v10.967h1.4785v-10.89zm-65.229 1.2109c0.77833 0 1.4724 0.17968 2.084 0.54101 0.62544 0.34747 1.1115 0.84869 1.459 1.502 0.34747 0.6532 0.52149 1.3965 0.52149 2.2305 0 0.83394-0.17402 1.5773-0.52149 2.2305-0.34746 0.65327-0.83354 1.1601-1.459 1.5215-0.61154 0.3474-1.3057 0.52148-2.084 0.52148-0.77832 0-1.48-0.17408-2.1055-0.52148-0.61155-0.3614-1.0976-0.86822-1.459-1.5215-0.34747-0.6532-0.52148-1.3965-0.52148-2.2305 0-0.83393 0.17401-1.5773 0.52148-2.2305 0.36136-0.65326 0.84744-1.1545 1.459-1.502 0.62543-0.36133 1.3271-0.54102 2.1055-0.54101zm36.244 0c0.76442 0 1.4585 0.17968 2.084 0.54101 0.62544 0.3614 1.1115 0.86829 1.459 1.5215 0.36137 0.63933 0.54297 1.377 0.54297 2.2109 0 0.83394-0.1816 1.5773-0.54297 2.2305-0.34746 0.65327-0.83354 1.1601-1.459 1.5215-0.62544 0.3474-1.3196 0.52148-2.084 0.52148-0.77833 0-1.48-0.17408-2.1055-0.52148-0.61154-0.3614-1.0976-0.86822-1.459-1.5215-0.34746-0.6532-0.52148-1.3965-0.52148-2.2305 0-0.83393 0.17402-1.5716 0.52148-2.2109 0.36137-0.6532 0.84745-1.1601 1.459-1.5215 0.62543-0.36133 1.3271-0.54102 2.1055-0.54101zm49.266 0c0.77832 0 1.4724 0.17968 2.084 0.54101 0.62544 0.34747 1.1115 0.84869 1.459 1.502 0.34746 0.6532 0.52148 1.3965 0.52148 2.2305 0 0.83394-0.17402 1.5773-0.52148 2.2305-0.34747 0.65327-0.83355 1.1601-1.459 1.5215-0.61154 0.3474-1.3057 0.52148-2.084 0.52148-0.77833 0-1.482-0.17408-2.1074-0.52148-0.61155-0.3614-1.0976-0.86822-1.459-1.5215-0.34747-0.6532-0.52148-1.3965-0.52148-2.2305 0-0.83393 0.17401-1.5773 0.52148-2.2305 0.36136-0.65326 0.84744-1.1545 1.459-1.502 0.62543-0.36133 1.3291-0.54102 2.1074-0.54101zm-37.406 4.6699h3.4394v1.791c-0.29186 0.72274-0.73633 1.2788-1.334 1.668-0.59763 0.37527-1.3145 0.56445-2.1484 0.56445-0.87561 0-1.5565-0.18156-2.043-0.54296-0.48645-0.37527-0.72851-0.88216-0.72851-1.5215 0-1.3065 0.93813-1.959 2.8144-1.959z"/>
</svg>
