<svg viewBox="0 0 1950 3200" xmlns="http://www.w3.org/2000/svg">
  <path d="m1277.9 45.174c-0.2814 0-941.95 4.27e-4 -942.23 0.0013-150.81 0.45703-273.42 123.35-273.42 274.26 0 150.74 122.34 273.53 272.91 274.26 0.44981 2e-3 942.33 3e-3 942.79 3e-3 77.393-1e-4 147.4-32.257 197.33-84.018l284.62 284.62v1496.1l-293.55-282.53c48.2-49.453 75.916-111.87 75.916-186.2-1e-4 -151.19-123.07-274.26-274.26-274.26-0.2213 0-941.86 3e-4 -942.04 9e-4 -150.89 0.3596-273.6 123.3-273.6 274.26 1.9e-5 150.97 122.7 273.9 273.59 274.26 0.22627 5e-4 941.86 8e-4 942.14 8e-4 69.473 0 135.03-31.09 183.42-73.849l308.48 297.05v187.81l-226.4 168.14-32.124-41.786-48.188 116.64 125.11-16.589-32.236-41.93 234.45-174.11v-1731.6l-291.46-291.46c39.43-47.509 63.172-108.48 63.172-174.87 0-151.19-123.07-274.26-274.26-274.26zm0 47.199c112.64-0.05075 227.07 101.38 227.07 227.07 0 125.69-101.38 227.07-227.07 227.07-0.1995 0-941.86-2.5e-4 -942.04-7.7e-4 -125.41-0.32116-226.47-101.58-226.47-227.07 0-125.43 100.97-226.66 226.3-227.07 0.25696-8.49e-4 942.23-0.25848 942.23-0.0013zm-9.9533 1502.1c125.69 0 227.07 101.38 227.07 227.07-1e-4 125.69-101.38 227.07-227.07 227.07-0.32 0-942.04-7e-4 -942.42 0-125.25-0.5164-226.11-101.7-226.11-227.07 0-125.46 101.02-226.7 226.38-227.07 0.22896-6e-4 942.14 0.2292 942.14 0z" style="color-rendering:auto;color:#000000;dominant-baseline:auto;fill:#e0af74;font-feature-settings:normal;font-variant-alternates:normal;font-variant-caps:normal;font-variant-ligatures:normal;font-variant-numeric:normal;font-variant-position:normal;image-rendering:auto;isolation:auto;mix-blend-mode:normal;shape-padding:0;shape-rendering:auto;solid-color:#000000;stroke-width:.9381;text-decoration-color:#000000;text-decoration-line:none;text-decoration-style:solid;text-indent:0;text-orientation:mixed;text-transform:none;white-space:normal"/>
</svg>
