<svg id="svg4" xmlns="http://www.w3.org/2000/svg" version="1.1" viewBox="0 0 1792 1792">
 <path id="path2" style="fill:#1a83de" d="m1378.5 1585.2q0-27.997-20.462-48.457t-48.462-20.46-48.462 20.46-20.462 48.457 20.462 48.457 48.462 20.46 48.462-20.46 20.462-48.457zm275.69 0q0-27.997-20.462-48.457t-48.462-20.46-48.462 20.46-20.462 48.457 20.462 48.457 48.462 20.46 48.462-20.46 20.462-48.457zm137.8-241.2v344.58q0 43.073-30.154 73.224-30.1 30.2-73.2 30.2h-1585.2q-43.092 0-73.246-30.2-30.154-30.1-30.154-73.2v-344.58q0-43.073 30.154-73.224t73.231-30.151h500.77l145.38 146.45q62.462 60.302 146.46 60.302 84 0 146.46-60.302l146.46-146.45h499.69q43.077 0 73.231 30.151 30.2 30.2 30.2 73.2zm-350-612.67q18.308 44.15-15.077 75.378l-482.44 482.39q-19.385 20.46-48.462 20.46t-48.462-20.46l-482.46-482.39q-33.385-31.228-15.077-75.378 18.308-41.996 63.538-41.996h275.69v-482.42q0-27.997 20.462-48.457 20.46-20.46 48.46-20.46h275.69q28 0 48.462 20.46t20.462 48.457v482.42h275.69q45.231 0 63.538 41.996z"/>
</svg>
