<svg xmlns="http://www.w3.org/2000/svg" version="1.1" viewBox="0 0 1792 1250">
 <path style="stroke-width:1.0562" d="m1792 33.784v459.25c0 14.78-6.8679 25.162-20.604 31.144-13.736 5.9826-26.239 3.3431-37.509-7.918l-127.9-127.75-668.79 668.29c-7.0441 7.0383-15.145 10.557-24.302 10.557-9.1573 0-17.258-3.5191-24.302-10.557l-246.19-245.99-439.55 439.19-202.87-202.7 618.11-617.61c7.044-7.0383 15.145-10.557 24.302-10.557 9.1572 0 17.258 3.5191 24.302 10.557l246.2 245.99 490.29-489.87-127.9-127.74c-11.2-11.265-13.9-23.758-7.9-37.483s16.4-20.587 31.2-20.587h459.62c9.8616 0 17.962 3.1672 24.302 9.5017 6.3396 6.3345 9.5094 14.428 9.5094 24.282z"/>
</svg>
