<svg xmlns="http://www.w3.org/2000/svg" version="1.1" viewBox="0 0 1792 1792">
 <path style="fill:#f0f2f4" d="m576 1489.7v-192c0-9.3333-3-17-9-23s-13.667-9-23-9h-320c-9.3333 0-17 3-23 9s-9 13.667-9 23v192c0 9.3333 3 17 9 23s13.667 9 23 9h320c9.3333 0 17-3 23-9s9-13.667 9-23zm0-384v-192.05c0-9.3333-3-17-9-23s-13.667-9-23-9h-320c-9.3333 0-17 3-23 9s-9 13.667-9 23v192c0 9.3333 3 17 9 23s13.667 9 23 9h320c9.3333 0 17-3 23-9s9-13.667 9-23zm512 384v-192c0-9.3333-3-17-9-23s-13.667-9-23-9h-320c-9.3333 0-17 3-23 9s-9 13.667-9 23v192c0 9.3333 3 17 9 23s13.667 9 23 9h320c9.3333 0 17-3 23-9s9-13.667 9-23zm-512-768.05v-192c0-9.3333-3-17-9-23s-13.667-9-23-9h-320c-9.3333 0-17 3-23 9s-9 13.667-9 23v192c0 9.3333 3 17 9 23s13.667 9 23 9h320c9.3333 0 17-3 23-9s9-13.667 9-23zm512 384v-191.95c0-9.3333-3-17-9-23s-13.667-9-23-9h-320c-9.3333 0-17 3-23 9s-9 13.667-9 23v192c0 9.3333 3 17 9 23s13.667 9 23 9h320c9.3333 0 17-3 23-9s9-13.667 9-23zm512 384v-192c0-9.3333-3-17-9-23s-13.667-9-23-9h-320c-9.3333 0-17 3-23 9s-9 13.667-9 23v192c0 9.3333 3 17 9 23s13.667 9 23 9h320c9.3333 0 17-3 23-9s9-13.667 9-23zm-512-767.95v-192c0-9.3333-3-17-9-23s-13.667-9-23-9h-320c-9.3333 0-17 3-23 9s-9 13.667-9 23v192c0 9.3333 3 17 9 23s13.667 9 23 9h320c9.3333 0 17-3 23-9s9-13.667 9-23zm512 384v-191.95c0-9.3333-3-17-9-23s-13.667-9-23-9h-320c-9.3333 0-17 3-23 9s-9 13.667-9 23v192c0 9.3333 3 17 9 23s13.667 9 23 9h320c9.3333 0 17-3 23-9s9-13.667 9-23zm0-384v-192c0-9.3333-3-17-9-23s-13.667-9-23-9h-320c-9.3333 0-17 3-23 9s-9 13.667-9 23v192c0 9.3333 3 17 9 23s13.667 9 23 9h320c9.3333 0 17-3 23-9s9-13.667 9-23zm128-419.25v1187.4c0 44-15.667 81.667-47 113s-69 47-113 47h-1344c-44 0-81.667-15.667-113-47s-47-69-47-113v-1187.4c0-44 15.667-81.667 47-113s69-47 113-47h1344c44 0 81.667 15.667 113 47s47 69 47 113z"/>
</svg>
