<svg xmlns="http://www.w3.org/2000/svg" version="1.1" viewBox="0 0 1792 1792"><path d="m684.64 719.96v633.75q0 15.404-9.9077 25.306-9.9077 9.9024-25.32 9.9024h-70.455q-15.412 0-25.32-9.9024-9.9077-9.9023-9.9077-25.306v-633.74q0-15.404 9.9077-25.306 9.9077-9.9023 25.32-9.9023h70.455q15.412 0 25.32 9.9023 9.9077 9.9023 9.9077 25.306zm281.82 0v633.75q0 15.404-9.9077 25.306-9.9077 9.9024-25.32 9.9024h-70.455q-15.412 0-25.32-9.9024-9.9077-9.9023-9.9077-25.306v-633.74q0-15.404 9.9077-25.306 9.9077-9.9023 25.32-9.9023h70.455q15.412 0 25.32 9.9023 9.9077 9.9023 9.9077 25.306zm281.82 0v633.75q0 15.404-9.9077 25.306-9.9077 9.9024-25.32 9.9024h-70.454q-15.412 0-25.32-9.9024-9.9077-9.9023-9.9077-25.306v-633.74q0-15.404 9.9077-25.306 9.9078-9.9023 25.32-9.9023h70.454q15.412 0 25.32 9.9023 9.9077 9.9023 9.9077 25.306zm140.91 796.59v-1043.1h-986.38v1043q0 24.206 7.706 44.561t15.962 29.707q8.2564 9.3523 11.559 9.3523h915.91q3.3025 0 11.559-9.3523 8.2563-9.3522 15.962-29.707 7.7059-20.355 7.7059-44.561zm-739.79-1183.9h493.19l-52.841-128.73q-7.706-9.9024-18.714-12.103h-349.03q-11.009 2.2005-18.714 12.103zm1021.6 35.21v70.417q0 15.404-9.9077 25.306-9.9076 9.9023-25.32 9.9023h-105.7v1043q0 91.322-51.74 157.89-51.8 66.6-124.4 66.6h-915.95q-72.656 0-124.4-64.365-51.74-64.3-51.74-155.7v-1047.4h-105.68q-15.412 0-25.32-9.9023-9.9077-9.9024-9.9077-25.306v-70.41q0-15.404 9.9077-25.306 9.9077-9.9023 25.32-9.9023h340.16l77.06-183.75q16.51-40.71 59.45-69.313 42.93-28.607 86.96-28.607h352.27q44.034 0 86.967 28.607t59.446 69.316l77.06 183.74h340.16q15.412 0 25.32 9.9023 9.9 9.91 9.9 25.32z"/></svg>
