<?xml version="1.0" encoding="UTF-8" standalone="no"?>
<svg
   xmlns:dc="http://purl.org/dc/elements/1.1/"
   xmlns:cc="http://creativecommons.org/ns#"
   xmlns:rdf="http://www.w3.org/1999/02/22-rdf-syntax-ns#"
   xmlns:svg="http://www.w3.org/2000/svg"
   xmlns="http://www.w3.org/2000/svg"
   xmlns:sodipodi="http://sodipodi.sourceforge.net/DTD/sodipodi-0.dtd"
   xmlns:inkscape="http://www.inkscape.org/namespaces/inkscape"
   id="svg4"
   version="1.1"
   viewBox="0 0 1792 1250"
   sodipodi:docname="box-select.svg"
   inkscape:version="0.92.3 (unknown)">
  <metadata
     id="metadata8">
    <rdf:RDF>
      <cc:Work
         rdf:about="">
        <dc:format>image/svg+xml</dc:format>
        <dc:type
           rdf:resource="http://purl.org/dc/dcmitype/StillImage" />
        <dc:title></dc:title>
      </cc:Work>
    </rdf:RDF>
  </metadata>
  <defs
     id="defs6" />
  <sodipodi:namedview
     pagecolor="#ffffff"
     bordercolor="#666666"
     borderopacity="1"
     objecttolerance="10"
     gridtolerance="10"
     guidetolerance="10"
     inkscape:pageopacity="0"
     inkscape:pageshadow="2"
     inkscape:window-width="1920"
     inkscape:window-height="1056"
     id="namedview4"
     showgrid="false"
     inkscape:zoom="0.31110491"
     inkscape:cx="110.09148"
     inkscape:cy="625"
     inkscape:window-x="1920"
     inkscape:window-y="24"
     inkscape:window-maximized="1"
     inkscape:current-layer="svg4" />
  <path
     style="display:inline;opacity:1;fill:#000000;fill-opacity:1;stroke-width:0.89485568"
     d="M 823.37153,0 C 808.91989,0 796.42574,5.2345362 785.86439,15.791814 L 556.57069,245.08602 433.87556,122.54328 c -10.45821,-10.66324 -23.05548,-15.79238 -37.50717,-15.79238 -14.45171,0 -26.94646,5.23454 -37.50716,15.79238 l -85.03619,85.03614 c -10.56187,10.56132 -15.79239,23.05436 -15.79239,37.5066 0,14.45169 5.23452,26.94589 15.79239,37.50716 l 245.23848,245.23839 c 10.56013,10.56188 23.05547,15.79297 37.50717,15.79297 14.45169,0 26.94586,-5.23453 37.50718,-15.79297 l 351.8371,-351.83695 c 10.5618,-10.5607 15.79232,-23.20723 15.79232,-37.65892 0,-14.4517 -5.23446,-26.94702 -15.79232,-37.50717 L 860.87876,15.791814 C 850.31804,5.2299545 837.82326,0 823.37153,0 Z M 122.84506,677.29339 c -8.35179,0 -15.21281,2.68591 -20.58197,8.05142 -5.371983,5.38354 -8.05339,12.23317 -8.05339,20.58324 V 877.7403 c 0,8.35007 2.685997,15.21659 8.05339,20.58297 5.3663,5.38353 12.23018,8.05222 20.58197,8.05222 h 171.81222 c 8.35178,0 15.21224,-2.69159 20.58137,-8.05222 5.36627,-5.38356 8.05401,-12.2329 8.05401,-20.58297 V 705.92805 c 0,-8.35007 -2.68602,-15.21687 -8.05401,-20.58324 -5.36626,-5.38327 -12.22959,-8.05142 -20.58137,-8.05142 z m 343.62442,0 c -8.3518,0 -15.21281,2.68591 -20.58195,8.05142 -5.37199,5.38354 -8.0534,12.23317 -8.0534,20.58324 V 877.7403 c 0,8.35007 2.686,15.21659 8.0534,20.58297 5.36627,5.38353 12.23015,8.05222 20.58195,8.05222 h 171.81223 c 8.35177,0 15.21226,-2.69159 20.58139,-8.05222 5.36628,-5.38356 8.05399,-12.2329 8.05399,-20.58297 V 705.92805 c 0,-8.35007 -2.686,-15.21687 -8.05399,-20.58324 -5.36627,-5.38327 -12.22962,-8.05142 -20.58139,-8.05142 z m 343.62446,0 c -8.35178,0 -15.21281,2.68591 -20.58194,8.05142 -5.372,5.38354 -8.05343,12.23317 -8.05343,20.58324 V 877.7403 c 0,8.35007 2.686,15.21659 8.05343,20.58297 5.36626,5.38353 12.23016,8.05222 20.58194,8.05222 h 171.8122 c 8.3519,0 15.2123,-2.69159 20.58136,-8.05222 5.3664,-5.38356 8.054,-12.2329 8.054,-20.58297 V 705.92805 c 0,-8.35007 -2.6859,-15.21687 -8.054,-20.58324 -5.36619,-5.38327 -12.22946,-8.05142 -20.58136,-8.05142 z m 343.62456,0 c -8.3518,0 -15.2128,2.68591 -20.5821,8.05142 -5.3662,5.38354 -8.0533,12.23317 -8.0533,20.58324 V 877.7403 c 0,8.35007 2.686,15.21659 8.0533,20.58297 5.3663,5.38353 12.2303,8.05222 20.5821,8.05222 h 171.812 c 8.3519,0 15.2123,-2.69159 20.5815,-8.05222 5.3663,-5.38356 8.0539,-12.2329 8.0539,-20.58297 V 705.92805 c 0,-8.35007 -2.6859,-15.21687 -8.0539,-20.58324 -5.3662,-5.38327 -12.2296,-8.05142 -20.5815,-8.05142 z m 343.6244,0 c -8.3519,0 -15.2128,2.68591 -20.582,8.05142 -5.372,5.38354 -8.0534,12.23317 -8.0534,20.58324 V 877.7403 c 0,8.35007 2.6861,15.21659 8.0534,20.58297 5.3663,5.38353 12.2301,8.05222 20.582,8.05222 h 171.8122 c 8.3518,0 15.2122,-2.69159 20.5811,-8.05222 5.3721,-5.38356 8.0541,-12.2329 8.0541,-20.58297 V 705.92805 c 0,-8.35007 -2.6859,-15.21687 -8.0541,-20.58324 -5.3661,-5.38327 -12.2293,-8.05142 -20.5811,-8.05142 z M 294.65728,1020.917 c -8.3518,0 -15.21283,2.6916 -20.58198,8.0522 -5.37197,5.3836 -8.05338,12.233 -8.05338,20.5831 v 171.8122 c 0,8.35 2.68598,15.2168 8.05338,20.5831 5.36629,5.3834 12.23018,8.0524 20.58198,8.0524 h 171.8122 c 8.35179,0 15.21228,-2.6919 20.5814,-8.0524 5.36627,-5.3834 8.05399,-12.2331 8.05399,-20.5831 v -171.8122 c 0,-8.3501 -2.68599,-15.2166 -8.05399,-20.5831 -5.36625,-5.3835 -12.22961,-8.0522 -20.5814,-8.0522 z m 343.62443,0 c -8.3518,0 -15.21282,2.6916 -20.58194,8.0522 -5.37203,5.3836 -8.05341,12.233 -8.05341,20.5831 v 171.8122 c 0,8.35 2.68597,15.2168 8.05341,20.5831 5.36625,5.3834 12.23014,8.0524 20.58194,8.0524 h 171.81223 c 8.35177,0 15.21227,-2.6919 20.5814,-8.0524 5.36626,-5.3834 8.05396,-12.2331 8.05396,-20.5831 v -171.8122 c 0,-8.3501 -2.686,-15.2166 -8.05396,-20.5831 -5.36627,-5.3835 -12.22963,-8.0522 -20.5814,-8.0522 z m 343.62443,0 c -8.35177,0 -15.21281,2.6916 -20.58185,8.0522 -5.37208,5.3836 -8.05352,12.233 -8.05352,20.5831 v 171.8122 c 0,8.35 2.686,15.2168 8.05352,20.5831 5.36618,5.3834 12.23008,8.0524 20.58185,8.0524 h 171.81236 c 8.3518,0 15.2122,-2.6919 20.5814,-8.0524 5.3661,-5.3834 8.0539,-12.2331 8.0539,-20.5831 v -171.8122 c 0,-8.3501 -2.6861,-15.2166 -8.0539,-20.5831 -5.3663,-5.3835 -12.2296,-8.0522 -20.5814,-8.0522 z m 343.62436,0 c -8.3516,0 -15.2128,2.6916 -20.5819,8.0522 -5.3662,5.3836 -8.0535,12.233 -8.0535,20.5831 v 171.8122 c 0,8.35 2.6861,15.2168 8.0535,20.5831 5.3662,5.3834 12.2303,8.0524 20.5819,8.0524 h 171.8124 c 8.3517,0 15.2121,-2.6919 20.5813,-8.0524 5.3719,-5.3834 8.054,-12.2331 8.054,-20.5831 v -171.8122 c 0,-8.3501 -2.686,-15.2166 -8.054,-20.5831 -5.3664,-5.3835 -12.2296,-8.0522 -20.5813,-8.0522 z"
     id="path6778-4-1"
     inkscape:connector-curvature="0"
     sodipodi:nodetypes="scccsccsccsccsccsscsscsscsscssscsscsscsscssscsscsscsscssscsscsscsscssscsscsscsscssscsscsscsscssscsscsscsscssscsscsscsscssscsscsscsscss" />
</svg>
