<svg version="1.1" viewBox="0 0 1792 1792" xmlns="http://www.w3.org/2000/svg">
  <rect x="96" y="96" width="1600" height="1600" rx="0" ry="0" style="fill:#ffe52b"/>
  <path d="m1222.4 667.2c-103.99 0-199.85 77.127-199.85 187.04 0 117.62 83.87 200.54 199.85 200.54 115.98 0 199.85-82.911 199.85-200.54 0-109.91-95.851-187.04-199.85-187.04zm-789.31 12.061v363.46h93.93v-148.96h135.64v148.96h93.916v-363.46h-93.916v140.26h-135.64v-140.26h-93.93zm789.31 79.531c56.071 0 102.08 45.797 102.08 95.926 0 62.673-46.006 108.46-102.08 108.46-56.071 0-102.08-45.792-102.08-108.46 0-50.129 46.007-95.926 102.08-95.926zm-312.86 183.44c-61.422 0-99.381 40.615-101.45 100.66h74.537c-0.688-3.8154-1.0352-7.6306-1.0352-11.105 0-17.701 10.007-31.934 28.299-31.934 17.944 0 29.676 17.353 29.676 34.02 0 23.949-14.498 47.55-29.676 64.209l-106.29 116.31h209.12v-57.639h-85.234l0.00195-0.0058 40.371-37.834c26.576-24.296 42.1-46.167 42.1-83.648 0-56.925-45.897-93.029-100.42-93.029z" style="stroke-width:60.859"/>
</svg>
