<svg xmlns="http://www.w3.org/2000/svg" version="1.1" viewBox="0 0 1792 1792"><path d="m1717.9 340.78-266.72-265.73c-28.761-28.763-63.143-43.052-103.26-43.052-40.871 0-74.904 14.393-102.15 43.144l-188.55 187.35 472.22 472.26 188.46-188.47c28-27.99 42.1-62.02 42.1-102.14 0-39.355-14.137-73.842-42.134-103.36zm-350.81-176.02 260.09 260.11c13.801 13.79 13.801 35.994 0 49.785l-110 109.96-309.9-309.87 110-109.99c13.79-13.79 35.992-13.779 49.77 0zm-382.57 170.4-944.53 944.64v472.2h472.22l944.55-944.6zm4.0558 201.4 266.82 266.84-803.36 803.4-121.52-0.069v-145.3h-145.29v-121.43z" stroke-width=".0097973"/></svg>
