<svg xmlns="http://www.w3.org/2000/svg" version="1.1" viewBox="0 0 1792 1792"><path d="m895.96-0.00028486c-494.06 0-895.96 401.98-895.96 896.04s401.9 895.96 895.96 895.96c494.04 0 896.04-401.9 896.04-895.96s-402-896.04-896.04-896.04zm0 133.37c422.01 0 762.74 340.65 762.74 762.67 0 422-340.73 762.67-762.74 762.67s-762.66-340.66-762.66-762.67 340.66-762.67 762.66-762.67zm-37.13 242.81c-10.83 0-19.727 3.4876-26.689 10.444-6.9645 6.9626-10.444 15.859-10.444 26.69v408.46h-408.46c-10.831 0-19.727 3.4876-26.689 10.444-6.9639 6.9626-10.443 15.859-10.443 26.69v74.268c0 10.831 3.4813 19.721 10.443 26.69 6.9626 6.9626 15.859 10.438 26.689 10.438h408.46v408.46c0 10.831 3.4813 19.727 10.444 26.69 6.962 6.9626 15.859 10.444 26.689 10.444h74.265c10.831 0 19.727-3.4876 26.689-10.444 6.9645-6.9626 10.444-15.859 10.444-26.69v-408.5h408.46c10.831 0 19.727-3.4876 26.689-10.438 6.9638-6.969 10.443-15.859 10.443-26.69v-74.268c0-10.831-3.4813-19.727-10.443-26.69-6.9626-6.9626-15.859-10.444-26.689-10.444h-408.47v-408.45c0-10.831-3.4813-19.727-10.444-26.69-6.962-6.9626-15.858-10.444-26.689-10.444z" stroke-width=".018299"/></svg>
