<svg xmlns="http://www.w3.org/2000/svg" version="1.1" viewBox="0 0 1792 1792"><path d="m382.63 0c-211.98 0-382.63 170.65-382.63 382.63v1026.8c0 211.9 170.65 382.6 382.63 382.6h1026.8c211.9 0 382.6-170.7 382.6-382.6v-1026.8c0-211.95-170.7-382.6-382.6-382.6h-1026.8zm199.37 448h433c87.3 0 161.5 30.67 222.5 92s91.5 135.33 91.5 222-30.7 160.5-92 221.5-135.3 91.5-222 91.5h-253v269h-180v-896zm180 179v269h253c37.3 0 69.2-13 95.5-39s39.5-57.67 39.5-95-13.2-69.17-39.5-95.5-58.2-39.5-95.5-39.5h-253z"/></svg>
