<svg id="svg4" xmlns="http://www.w3.org/2000/svg" version="1.1" viewBox="0 0 1792 1792">
 <path id="path15761" d="m1183.4 33.786c-104.29 0-200.46 25.697-288.52 77.09-88.074 51.393-157.8 121.12-209.19 209.19-38.776 66.444-62.891 137.51-72.411 213.19a650.37 650.37 0 0 1 166.17 23.361c6.6308-54.094 23.725-104.89 51.432-152.35 36.427-62.371 85.822-111.77 148.19-148.19 62.371-36.427 130.47-54.64 204.32-54.64 73.843 0 141.95 18.213 204.32 54.64 62.377 36.42 111.77 85.816 148.19 148.19 36.42 62.371 54.634 130.48 54.634 204.32 0 73.843-18.213 141.95-54.634 204.32-36.427 62.364-85.816 111.77-148.19 148.19-47.294 27.623-97.9 44.71-151.79 51.387a650.37 650.37 0 0 1 22.873 166.22c75.658-9.5265 146.7-33.648 213.12-72.411 88.061-51.387 157.79-121.12 209.18-209.18 51.393-88.067 77.09-184.24 77.09-288.52s-25.697-200.46-77.09-288.52c-51.4-88.07-121.1-157.8-209.2-209.19-88-51.397-184.2-77.094-288.5-77.094zm23.946 287.4c-6.9822 0-12.722 2.2124-17.211 6.7349-4.49 4.4899-6.735 10.229-6.735 17.218v263.45h-167.65c-6.9886 0-12.721 2.2124-17.211 6.7349-4.49 4.4899-6.7414 10.229-6.7414 17.211v47.899c0 6.9886 2.2124 12.728 6.7414 17.218 4.4898 4.4899 10.223 6.7349 17.211 6.7349h239.49c6.9887 0 12.721-2.2124 17.211-6.7349 4.4898-4.4899 6.7413-10.229 6.7413-17.218v-335.3c0-6.9886-2.2124-12.728-6.7413-17.218-4.49-4.4899-10.223-6.7349-17.211-6.7349zm-681.78 287.4c-14.465 0-23.452 6.9821-26.946 20.953-6.5071 24.948-13.717 71.351-21.701 139.21-23.452 7.4897-46.155 16.971-68.104 28.443l-103.28-80.08c-6.5071-5.0105-12.969-7.4832-19.456-7.4832-10.978 0-34.553 17.843-70.732 53.515-36.173 35.672-60.744 62.494-73.719 80.454-4.4899 6.5071-6.7349 12.227-6.7349 17.218 0 5.9866 2.4727 11.973 7.4832 17.96 33.434 40.416 60.126 74.845 80.083 103.28-12.474 22.957-22.202 45.908-29.184 68.858l-139.21 20.959c-5.466 0.9761-10.223 4.2296-14.218 9.7282-3.9693 5.4659-5.9866 11.225-5.9866 17.211v166.15c0 6.5072 1.9521 12.35 5.9866 17.589 3.9693 5.2708 9.2336 8.3551 15.721 9.3573l136.96 20.204c6.9886 24.447 17.218 49.148 30.694 74.097-8.9863 12.474-22.456 30.063-40.422 52.766-17.96 22.697-30.681 39.29-38.171 49.766-3.9694 5.4659-5.9866 11.225-5.9866 17.218 0 6.507 1.7569 12.22 5.2708 17.211 19.45 26.946 60.62 68.858 123.49 125.74 5.466 5.466 11.726 8.2314 18.708 8.2314 7.4832 0 13.724-2.2123 18.714-6.7348l105.53-80.083c20.458 10.477 42.914 19.71 67.362 27.694l20.953 137.71c0.6507 6.5071 3.3837 11.85 8.6089 16.092 5.2708 4.2297 11.348 6.377 18.337 6.377h166.15c14.472 0 23.452-6.9887 26.946-20.96 6.5071-24.942 13.717-71.351 21.701-139.21 23.452-7.4832 46.155-16.964 68.11-28.443l103.28 80.831c6.9821 4.49 13.47 6.7414 19.463 6.7414 10.971 0 34.423-17.712 70.355-53.144 35.919-35.425 60.62-62.364 74.09-80.831 4.49-5.0105 6.7349-10.724 6.7349-17.211 0-6.5071-2.4727-12.721-7.4832-18.708-35.926-43.91-62.618-78.339-80.083-103.29 9.982-18.461 19.71-41.164 29.191-68.104l138.46-20.96c5.9866-0.976 10.978-4.2296 14.966-9.7281 3.9694-5.466 5.9866-11.225 5.9866-17.218v-166.15c0-6.5071-1.9522-12.351-5.9866-17.589-3.9694-5.2057-9.2271-8.3616-15.715-9.3572l-136.96-20.953c-7.4896-23.953-17.712-48.4-30.688-73.348 8.9799-12.474 22.456-30.063 40.416-52.766s30.681-39.29 38.171-49.773c3.9694-5.466 5.9866-11.225 5.9866-17.211 0-6.9822-1.7569-12.474-5.2708-16.463-17.96-25.449-59.124-67.863-123.49-127.23-5.9866-5.0105-12.22-7.4832-18.708-7.4832-7.4832 0-13.47 2.2124-17.96 6.7349l-106.33 80.09c-20.45-10.48-42.91-19.71-67.35-27.69l-20.96-137.71c-0.65072-6.5071-3.3837-11.849-8.6089-16.092-5.2708-4.2296-11.348-6.377-18.337-6.377zm83.076 383.2c52.89 0 98.043 18.708 135.47 56.13 37.422 37.422 56.137 82.575 56.137 135.47 0 52.89-18.714 98.043-56.137 135.47-37.422 37.422-82.575 56.137-135.47 56.137-52.883 0-98.043-18.715-135.47-56.137-37.422-37.422-56.13-82.575-56.13-135.47 0-52.89 18.708-98.043 56.13-135.47 37.422-37.422 82.582-56.13 135.47-56.13z" style="stroke-width:.74843;fill:#d1d6dd"/>
</svg>
