<svg id="svg4" xmlns="http://www.w3.org/2000/svg" version="1.1" xmlns:xlink="http://www.w3.org/1999/xlink" viewBox="0 0 1792 1792">
 <defs id="defs8">
  <radialGradient id="radialGradient9665" gradientUnits="userSpaceOnUse" cy="644.86" cx="1252.3" gradientTransform="translate(-14.367 -23.216)" r="44.78">
   <stop id="stop21861-5" style="stop-color:#fff" offset="0"/>
   <stop id="stop21863-0" style="stop-color:#fff;stop-opacity:0" offset="1"/>
  </radialGradient>
  <clipPath id="clipPath9163" clipPathUnits="userSpaceOnUse">
   <circle id="circle9165" cx="1252.3" cy="644.86" r="44.78" style="fill:url(#radialGradient9167)"/>
  </clipPath>
  <filter id="filter9758" style="color-interpolation-filters:sRGB" height="1.0932" width="1.099" y="-.046592" x="-.049496">
   <feGaussianBlur id="feGaussianBlur9760" stdDeviation="1.5370313"/>
  </filter>
  <linearGradient id="linearGradient10084" y2="574.71" xlink:href="#linearGradient10030" gradientUnits="userSpaceOnUse" x2="988.77" gradientTransform="matrix(20.009 0 0 20.009 -18312 -1e4)" y1="515.12" x1="931.19"/>
  <linearGradient id="linearGradient10030">
   <stop id="stop10026" style="stop-color:#8b9aaa" offset="0"/>
   <stop id="stop10028" style="stop-color:#617285" offset="1"/>
  </linearGradient>
  <linearGradient id="linearGradient10044" y2="573.21" gradientUnits="userSpaceOnUse" x2="987.88" gradientTransform="matrix(.98746 0 0 .98746 11.659 6.3266)" y1="516.33" x1="931.74">
   <stop id="stop10038" style="stop-color:#e1e5e9" offset="0"/>
   <stop id="stop10040" style="stop-color:#e1e5e9;stop-opacity:.66102" offset="1"/>
  </linearGradient>
  <clipPath id="clipPath10064" clipPathUnits="userSpaceOnUse">
   <path id="path10066" style="color-rendering:auto;text-decoration-color:#000000;color:#000000;font-variant-numeric:normal;shape-rendering:auto;solid-color:#000000;text-decoration-line:none;fill:#a88baa;font-variant-position:normal;mix-blend-mode:normal;font-feature-settings:normal;shape-padding:0;font-variant-alternates:normal;text-indent:0;font-variant-ligatures:normal;dominant-baseline:auto;font-variant-caps:normal;image-rendering:auto;white-space:normal;text-decoration-style:solid;text-orientation:mixed;isolation:auto;text-transform:none" d="m959.5 504.32c-21.945 0-39.766 17.821-39.766 39.766s17.821 39.766 39.766 39.766 39.766-17.821 39.766-39.766-17.821-39.766-39.766-39.766zm0 2.9536c20.348 0 36.812 16.464 36.812 36.812s-16.464 36.812-36.812 36.812-36.812-16.464-36.812-36.812 16.464-36.812 36.812-36.812z"/>
  </clipPath>
  <filter id="filter10046" style="color-interpolation-filters:sRGB" height="1.024" width="1.024" y="-.012" x="-.012">
   <feGaussianBlur id="feGaussianBlur10048" stdDeviation="0.39014427"/>
  </filter>
  <radialGradient id="radialGradient4951" gradientUnits="userSpaceOnUse" cy="644.86" cx="1252.3" gradientTransform="matrix(20.009 0 0 20.009 -24161 -12007)" r="44.78">
   <stop id="stop12283" style="stop-color:#0091da" offset="0"/>
   <stop id="stop5227" style="stop-color:#005dc4" offset=".97433"/>
   <stop id="stop12285" style="stop-color:#005dc4;stop-opacity:.49814" offset="1"/>
  </radialGradient>
  <filter id="filter4968" style="color-interpolation-filters:sRGB" height="1.1444" width="1.0288" y="-.072191" x="-.014392">
   <feGaussianBlur id="feGaussianBlur4970" stdDeviation="7.0013281"/>
  </filter>
  <clipPath id="clipPath5084" clipPathUnits="userSpaceOnUse">
   <path id="path5086" style="font-variant-numeric:normal;font-variant-ligatures:normal;font-variant-caps:normal;font-feature-settings:normal;fill:#d1d6dd" d="m2726.2 571.65c-20.619 0-38.195 3.3597-52.727 10.078-14.335 6.7184-25.135 15.93-32.4 27.633-7.2657 11.703-10.898 24.706-10.898 39.01 0 16.471 3.9264 29.583 11.781 39.336 7.8549 9.5358 17.086 16.47 27.69 20.805 10.604 4.1178 23.858 8.0188 39.764 11.703 12.371 2.8174 21.208 5.4188 26.51 7.8027 5.4984 2.384 8.2481 5.9586 8.2481 10.727 0 4.1178-2.0618 7.2605-6.1856 9.4277-4.1238 1.9505-10.997 2.9258-20.619 2.9258-11.193 0-22.878-1.8411-35.053-5.5254-12.175-3.901-23.172-8.9943-32.99-15.279l-22.385 55.914c10.408 7.1519 23.661 12.896 39.764 17.23 16.299 4.1178 32.992 6.1758 50.076 6.1758 20.619 0 38.095-3.3597 52.43-10.078 14.531-6.9352 25.43-16.146 32.695-27.633 7.2657-11.703 10.898-24.706 10.898-39.01 0-16.471-4.0249-29.474-12.076-39.01-7.8549-9.5358-17.182-16.363-27.982-20.48-10.8-4.3345-24.056-8.128-39.766-11.379-12.175-2.6007-20.913-4.9832-26.215-7.1504-5.3021-2.384-7.9532-5.8512-7.9532-10.402 0-9.5358 8.935-14.305 26.805-14.305 18.066 0 37.211 5.6347 57.438 16.904l20.914-55.59c-10.408-6.5017-22.484-11.378-36.23-14.629-13.55-3.4676-27.392-5.2012-41.531-5.2012zm126.8 5.2012v59.49h60.383v168.07h69.516v-168.07h60.385v-59.49zm304.02 0-90.135 227.56h70.693l13.844-39.66h78.352l13.844 39.66h71.873l-90.135-227.56zm208.14 0v227.56h69.514v-57.215h18.854l35.051 57.215h74.228l-43.299-70.219c12.568-7.1519 22.189-16.795 28.865-28.932 6.6766-12.137 10.016-26.334 10.016-42.588 0-17.338-3.8298-32.508-11.488-45.512-7.6584-13.003-18.557-22.973-32.695-29.908-14.139-6.9352-30.731-10.402-49.779-10.402zm238.99 0v59.49h60.385v168.07h69.516v-168.07h60.383v-59.49zm-169.48 59.166h25.332c9.4258 0 16.496 2.3844 21.209 7.1523 4.7129 4.5512 7.0684 11.052 7.0684 19.504 0 8.4522-2.3555 15.062-7.0684 19.83-4.7128 4.5512-11.783 6.8281-21.209 6.8281h-25.332zm-244.08 16.254 20.029 57.215h-40.059z"/>
  </clipPath>
  <clipPath id="clipPath5090" clipPathUnits="userSpaceOnUse">
   <circle id="circle5092" style="fill:#fdfeff" cy="-500.22" transform="scale(-1)" cx="-960" r="44.78"/>
  </clipPath>
  <clipPath id="clipPath5096" clipPathUnits="userSpaceOnUse">
   <circle id="circle5098" style="fill:#fdfeff" cy="500.22" cx="960" r="44.78"/>
  </clipPath>
 </defs>
 <g id="g5383">
  <circle id="circle4982" style="fill:#fdfeff" cy="896" cx="896" r="750"/>
  <path id="circle4911" d="m896-0.000003125a896 896 0 0 0 -896 896 896 896 0 0 0 896 896 896 896 0 0 0 896 -896 896 896 0 0 0 -896 -896zm-484.49 777.02c14.139 0 27.982 1.7336 41.531 5.2012 13.746 3.2509 25.823 8.1272 36.23 14.629l-20.912 55.59c-20.226-11.27-39.373-16.906-57.44-16.906-17.87 0-26.805 4.7688-26.805 14.305 0 4.5512 2.6511 8.0184 7.9531 10.402 5.302 2.1672 14.04 4.5517 26.215 7.1524 15.71 3.2508 28.965 7.0425 39.766 11.377 10.8 4.1178 20.128 10.945 27.982 20.48 8.0512 9.5358 12.078 22.541 12.078 39.012 0 14.304-3.6327 27.307-10.898 39.01-7.2658 11.486-18.166 20.698-32.697 27.633-14.335 6.7185-31.811 10.076-52.43 10.076-17.084 0-33.777-2.058-50.076-6.1758-16.102-4.3345-29.356-10.079-39.764-17.23l22.387-55.914c9.8185 6.285 20.815 11.378 32.99 15.279 12.175 3.6843 23.858 5.5274 35.051 5.5274 9.6222 0 16.495-0.97527 20.619-2.9258 4.1238-2.1672 6.1856-5.31 6.1856-9.4277 0-4.7679-2.7497-8.3446-8.2481-10.729-5.302-2.384-14.138-4.9853-26.51-7.8027-15.906-3.6843-29.16-7.5854-39.764-11.703-10.604-4.3345-19.835-11.269-27.69-20.805-7.8548-9.7526-11.781-22.865-11.781-39.336 0-14.304 3.6327-27.307 10.898-39.01 7.2658-11.703 18.065-20.914 32.4-27.633 14.532-6.7184 32.108-10.076 52.727-10.076zm126.8 5.2012h190.28v59.49h-60.38v168.09h-69.51v-168.09h-60.385zm304.02 0h68.336l90.135 227.56h-71.871l-13.846-39.66h-78.352l-13.844 39.66h-70.693zm208.14 0h99.266c19.048 0 35.641 3.4672 49.779 10.402 14.139 6.9352 25.037 16.905 32.695 29.908 7.6585 13.003 11.488 28.174 11.488 45.512 0 16.254-3.339 30.449-10.016 42.586-6.6767 12.137-16.298 21.78-28.865 28.932l43.299 70.219h-74.228l-35.051-57.215h-18.852v57.215h-69.516zm238.99 0h190.28v59.49h-60.383v168.07h-69.516v-168.09h-60.385zm-169.48 59.164v53.314h25.33c9.4258 0 16.496-2.275 21.209-6.8262 4.7132-4.7679 7.0704-11.378 7.0704-19.83 0-8.4522-2.3572-14.955-7.0704-19.506-4.7126-4.7679-11.783-7.1523-21.209-7.1523zm-244.08 16.256-20.029 57.215h40.061z" style="fill:url(#radialGradient4951)"/>
  <circle id="circle9583" style="opacity:0.196;fill:url(#radialGradient9665)" clip-path="url(#clipPath9163)" transform="matrix(20.009 0 0 20.009 -24161 -12007)" cy="621.64" cx="1237.9" r="44.78"/>
  <path id="circle9717" style="filter:url(#filter9758);fill:#fff;fill-opacity:.62147" d="m960 455.44a44.78 44.78 0 0 0 -44.781 44.779 44.78 44.78 0 0 0 16.123 34.395 44.78 44.78 0 0 1 -15.021 -33.402 44.78 44.78 0 0 1 44.781 -44.781 44.78 44.78 0 0 1 28.646 10.379 44.78 44.78 0 0 0 -29.75 -11.37z" clip-path="url(#clipPath5096)" transform="matrix(20.009 0 0 20.009 -18312 -9112.8)"/>
  <path id="path9773" style="filter:url(#filter9758);fill-opacity:.87006" d="m960 455.44a44.78 44.78 0 0 0 -44.781 44.779 44.78 44.78 0 0 0 16.123 34.395 44.78 44.78 0 0 1 -15.021 -33.402 44.78 44.78 0 0 1 44.781 -44.781 44.78 44.78 0 0 1 28.646 10.379 44.78 44.78 0 0 0 -29.75 -11.37z" clip-path="url(#clipPath5090)" transform="matrix(-20.009 0 0 -20.009 20104 10905)"/>
  <path id="text4957" style="filter:url(#filter4968);font-variant-numeric:normal;font-variant-ligatures:normal;font-variant-caps:normal;font-feature-settings:normal;fill:#1b1f24" d="m2726.2 571.65c-20.619 0-38.195 3.3597-52.727 10.078-14.335 6.7184-25.135 15.93-32.4 27.633-7.2657 11.703-10.898 24.706-10.898 39.01 0 16.471 3.9264 29.583 11.781 39.336 2.9041 3.5256 5.9974 6.6912 9.2774 9.5059-0.4291-0.49634-0.8562-0.99457-1.2774-1.5059-7.8548-9.7526-11.781-22.865-11.781-39.336 0-14.304 3.6327-27.307 10.898-39.01 7.2657-11.703 18.065-20.914 32.4-27.633 14.531-6.7184 32.108-10.078 52.727-10.078 14.139 0 27.982 1.7336 41.531 5.2012 9.9104 2.3438 18.948 5.5387 27.123 9.5723l1.1074-2.9434c-10.408-6.5017-22.484-11.378-36.23-14.629-13.55-3.4676-27.392-5.2012-41.531-5.2012zm126.8 5.2012v59.49h8v-51.49h182.28v-8zm304.02 0-90.135 227.56h11.168l86.965-219.56h63.506l-3.168-8zm208.14 0v227.56h8v-219.56h99.266c19.048 0 35.641 3.4672 49.779 10.402 6.3016 3.091 11.954 6.7895 16.969 11.086-6.73-7.8533-15.048-14.22-24.969-19.086-14.139-6.9352-30.731-10.402-49.779-10.402zm238.99 0v59.49h8v-51.49h182.28v-8zm-690.77 67.49v160.07h8v-160.07zm751.16 0v160.07h8v-160.07zm-179.72 3.4629c2.3061 4.0036 3.4629 8.9567 3.4629 14.869 0 8.4522-2.3555 15.062-7.0684 19.83-4.7129 4.5512-11.783 6.8281-21.209 6.8281h-17.332v8h25.332c9.4258 0 16.496-2.2769 21.209-6.8281 4.7129-4.7679 7.0684-11.378 7.0684-19.83 0-8.4522-2.3555-14.953-7.0684-19.504-1.2868-1.3018-2.7563-2.4188-4.3945-3.3652zm-777.71 7.2031c0.8323 3.3235 3.3803 5.9461 7.6484 7.8652 5.3021 2.1672 14.04 4.5497 26.215 7.1504 15.71 3.2509 28.965 7.0444 39.766 11.379 6.9207 2.6386 13.234 6.3946 18.945 11.258-7.6356-8.8954-16.615-15.319-26.945-19.258-10.8-4.3345-24.056-8.1261-39.766-11.377-11.926-2.5475-20.532-4.886-25.863-7.0176zm491.49 5.2637-2.5996 7.4258 14.629 41.789h-29.258l-2.8008 8h40.059zm-549.28 70.021-22.385 55.914c2.7979 1.9226 5.8082 3.74 9.0176 5.459l21.367-53.373c9.8185 6.285 20.815 11.376 32.99 15.277 12.175 3.6843 23.86 5.5273 35.053 5.5273 9.6221 0 16.495-0.97527 20.619-2.9258 4.1238-2.1672 6.1856-5.31 6.1856-9.4277 0-4.7679-2.7497-8.3426-8.2481-10.727-0.031-0.0141-0.07-0.0289-0.1016-0.043 0.2294 0.87434 0.3497 1.7958 0.3497 2.7695 0 4.1178-2.0618 7.2605-6.1856 9.4277-4.1238 1.9505-10.997 2.9258-20.619 2.9258-11.193 0-22.878-1.8411-35.053-5.5254-12.175-3.901-23.172-8.9943-32.99-15.279zm809.11 24.904 30.152 49.215h3.0996l-30.152-49.215zm-225.86 17.555 11.051 31.66h5.2071l-11-31.65z" clip-path="url(#clipPath5084)" transform="translate(-2314.7 205.37)"/>
  <circle id="path9948" cx="896" cy="896" r="778.16" style="stroke-linejoin:round;stroke:url(#linearGradient10084);stroke-linecap:round;stroke-width:60.026;fill:none"/>
  <circle id="circle10034" r="778.16" style="stroke-linejoin:round;stroke:url(#linearGradient10084);stroke-linecap:round;stroke-width:60.026;fill:none" cx="896" cy="896"/>
  <circle id="circle10036" style="stroke-linejoin:round;filter:url(#filter10046);stroke:url(#linearGradient10044);stroke-linecap:round;stroke-width:0.75;fill:none" clip-path="url(#clipPath10064)" transform="matrix(20.009 0 0 20.009 -18312 -1e4)" cy="544.08" cx="959.62" r="39.014"/>
 </g>
</svg>
