<svg id="svg4" xmlns="http://www.w3.org/2000/svg" viewBox="0 0 1792 1792" version="1.1" xmlns:xlink="http://www.w3.org/1999/xlink">
 <defs id="defs8">
  <linearGradient id="linearGradient10030">
   <stop id="stop10026" style="stop-color:#8b9aaa" offset="0"/>
   <stop id="stop10028" style="stop-color:#617285" offset="1"/>
  </linearGradient>
  <radialGradient id="radialGradient14534" xlink:href="#linearGradient12673" gradientUnits="userSpaceOnUse" cy="644.86" cx="1252.3" gradientTransform="matrix(20.009 0 0 20.009 -24161 -12007)" r="44.78"/>
  <linearGradient id="linearGradient12673">
   <stop id="stop12669" style="stop-color:#da0000" offset="0"/>
   <stop id="stop4946" style="stop-color:#c40000" offset=".97613"/>
   <stop id="stop12671" style="stop-color:#c40000;stop-opacity:.71375" offset="1"/>
  </linearGradient>
  <radialGradient id="radialGradient14536" gradientUnits="userSpaceOnUse" cy="644.86" cx="1252.3" gradientTransform="translate(-14.367 -23.216)" r="44.78">
   <stop id="stop21861-5-3" style="stop-color:#fff" offset="0"/>
   <stop id="stop21863-0-6" style="stop-color:#fff;stop-opacity:0" offset="1"/>
  </radialGradient>
  <filter id="filter9758-9" style="color-interpolation-filters:sRGB" height="1.0932" width="1.099" y="-.046592" x="-.049496">
   <feGaussianBlur id="feGaussianBlur9760-2" stdDeviation="1.5370313"/>
  </filter>
  <linearGradient id="linearGradient14538" y2="574.71" xlink:href="#linearGradient10030" gradientUnits="userSpaceOnUse" x2="988.77" gradientTransform="matrix(20.009 0 0 20.009 -18312 -1e4)" y1="515.12" x1="931.19"/>
  <linearGradient id="linearGradient14542" y2="573.21" gradientUnits="userSpaceOnUse" x2="987.88" gradientTransform="matrix(.98746 0 0 .98746 11.659 6.3266)" y1="516.33" x1="931.74">
   <stop id="stop10038-3" style="stop-color:#e1e5e9" offset="0"/>
   <stop id="stop10040-5" style="stop-color:#e1e5e9;stop-opacity:.66102" offset="1"/>
  </linearGradient>
  <clipPath id="clipPath10064-4" clipPathUnits="userSpaceOnUse">
   <path id="path10066-7" style="color-rendering:auto;text-decoration-color:#000000;color:#000000;font-variant-numeric:normal;shape-rendering:auto;solid-color:#000000;text-decoration-line:none;fill:#a88baa;font-variant-position:normal;mix-blend-mode:normal;font-feature-settings:normal;shape-padding:0;font-variant-alternates:normal;text-indent:0;font-variant-ligatures:normal;dominant-baseline:auto;font-variant-caps:normal;image-rendering:auto;white-space:normal;text-decoration-style:solid;text-orientation:mixed;isolation:auto;text-transform:none" d="m959.5 504.32c-21.945 0-39.766 17.821-39.766 39.766s17.821 39.766 39.766 39.766 39.766-17.821 39.766-39.766-17.821-39.766-39.766-39.766zm0 2.9536c20.348 0 36.812 16.464 36.812 36.812s-16.464 36.812-36.812 36.812-36.812-16.464-36.812-36.812 16.464-36.812 36.812-36.812z"/>
  </clipPath>
  <filter id="filter10046-8" style="color-interpolation-filters:sRGB" height="1.024" width="1.024" y="-.012" x="-.012">
   <feGaussianBlur id="feGaussianBlur10048-4" stdDeviation="0.39014427"/>
  </filter>
  <clipPath id="clipPath4964" clipPathUnits="userSpaceOnUse">
   <path id="path4966" d="m960 545a44.78 44.78 0 0 0 44.8 -44.78 44.78 44.78 0 0 0 -44.8 -44.78 44.78 44.78 0 0 0 -44.78 44.78 44.78 44.78 0 0 0 44.78 44.78zm18.804-38.834c-0.70663 0-1.3985-0.0867-2.0757-0.25994-0.687-0.16248-1.2906-0.40619-1.8107-0.73113l1.0452-2.7783c1.0109 0.56323 1.9678 0.84484 2.8707 0.84484 0.89309 0 1.3396-0.23824 1.3396-0.71482 0-0.22746-0.1325-0.40074-0.39749-0.51989-0.26498-0.10831-0.70178-0.22748-1.3103-0.35746-0.78514-0.16247-1.4475-0.35207-1.9873-0.5687-0.53978-0.2058-1.0059-0.54699-1.3985-1.0236-0.40239-0.47659-0.60364-1.1264-0.60364-1.9496 0-0.71488 0.18155-1.3647 0.54468-1.9496 0.36313-0.57407 0.9078-1.0344 1.634-1.381 0.71644-0.33578 1.5899-0.50369 2.6204-0.50369 0.85384 0 1.688 0.10296 2.5026 0.30875 0.80477 0.21663 1.4673 0.50361 1.9874 0.86105l-1.1188 2.7946c-0.49072-0.31411-1.0403-0.56867-1.6488-0.76363-0.60848-0.18414-1.1924-0.27625-1.7518-0.27625-0.4809 0-0.82441 0.0487-1.0305 0.14623-0.2061 0.10831-0.30914 0.26538-0.30914 0.47118 0 0.23829 0.13733 0.41704 0.41212 0.53619 0.26499 0.11915 0.70662 0.24906 1.3249 0.38987 0.79496 0.18413 1.4574 0.3791 1.9874 0.5849 0.52997 0.21663 0.9913 0.56329 1.3839 1.0399 0.39257 0.48741 0.5888 1.1426 0.5888 1.9658 0 0.71487-0.18155 1.3648-0.54468 1.9497s-0.90287 1.0452-1.6193 1.3809c-0.72626 0.33578-1.6047 0.50369-2.6352 0.50369zm-23.922 0c-1.109 0-2.1052-0.25456-2.9884-0.76363-0.88328-0.50908-1.5752-1.2185-2.0758-2.1284-0.50052-0.89901-0.75075-1.9171-0.75075-3.0544s0.25023-2.1609 0.75075-3.0707c0.50053-0.89902 1.1925-1.6031 2.0758-2.1122 0.88328-0.50907 1.8794-0.76363 2.9884-0.76363s2.1052 0.25456 2.9884 0.76363c0.88328 0.50908 1.5751 1.2132 2.0757 2.1122 0.50052 0.90983 0.75084 1.9334 0.75084 3.0707s-0.25032 2.1554-0.75084 3.0544c-0.50053 0.90984-1.1924 1.6193-2.0757 2.1284-0.88328 0.50907-1.8794 0.76363-2.9884 0.76363zm17.585-0.25994h-9.51v-2.9732h3.0179v-8.3998h3.4742v8.3998h3.0179zm-26.575 0h-4.9611c-0.95198 0-1.7812-0.17329-2.4879-0.5199-0.70663-0.3466-1.2513-0.84487-1.634-1.4948-0.38275-0.64989-0.57417-1.4081-0.57417-2.2746 0-0.86651 0.19142-1.6247 0.57417-2.2746 0.38276-0.64988 0.92742-1.1482 1.634-1.4948 0.70663-0.34661 1.5359-0.5199 2.4879-0.5199h1.4868v-2.7946h3.4743zm8.9896-2.8433c0.43183 0 0.82439-0.11907 1.1777-0.35736 0.3435-0.22746 0.61825-0.55781 0.82434-0.99107 0.2061-0.42243 0.30915-0.92069 0.30915-1.4948 0-0.57407-0.10305-1.0777-0.30915-1.511-0.20609-0.42243-0.48084-0.75288-0.82434-0.99117-0.35332-0.22746-0.74588-0.34116-1.1777-0.34116-0.43183 0-0.81947 0.1137-1.163 0.34116-0.35331 0.23829-0.63308 0.56874-0.83918 0.99117-0.2061 0.43326-0.30915 0.93689-0.30914 1.511 0 0.57407 0.10304 1.0723 0.30914 1.4948 0.2061 0.43326 0.48587 0.76361 0.83918 0.99107 0.3435 0.23829 0.73114 0.35736 1.163 0.35736zm-12.464-0.11372v-2.6645h-1.266c-0.47108 0-0.82444 0.1137-1.06 0.34116-0.23555 0.23829-0.35327 0.56865-0.35327 0.99107 0 0.42243 0.11772 0.74741 0.35327 0.97487 0.23554 0.23829 0.5889 0.35736 1.06 0.35736z" style="fill:url(#radialGradient4968)"/>
  </clipPath>
  <radialGradient id="radialGradient4968" xlink:href="#linearGradient12673" gradientUnits="userSpaceOnUse" cy="644.86" cx="1252.3" gradientTransform="rotate(180 1106.1 572.54)" r="44.78"/>
  <clipPath id="clipPath4979" clipPathUnits="userSpaceOnUse">
   <path id="path4981" d="m1252.3 600.08a44.78 44.78 0 0 0 -44.78 44.78 44.78 44.78 0 0 0 44.78 44.78 44.78 44.78 0 0 0 44.78 -44.78 44.78 44.78 0 0 0 -44.78 -44.78zm-18.804 38.834c0.7066 0 1.3985 0.0866 2.0757 0.25994 0.687 0.16248 1.2905 0.40619 1.8107 0.73113l-1.0452 2.7783c-1.0108-0.56323-1.9678-0.84484-2.8707-0.84484-0.8931 0-1.3396 0.23824-1.3396 0.71482 0 0.22746 0.1325 0.40074 0.3975 0.51989 0.2649 0.10831 0.7017 0.22748 1.3102 0.35746 0.7852 0.16247 1.4476 0.35207 1.9873 0.5687 0.5398 0.2058 1.006 0.54699 1.3986 1.0236 0.4023 0.47659 0.6036 1.1264 0.6036 1.9496 0 0.71488-0.1816 1.3647-0.5447 1.9496-0.3631 0.57407-0.9078 1.0344-1.634 1.381-0.7165 0.33578-1.59 0.50369-2.6205 0.50369-0.8538 0-1.688-0.10296-2.5026-0.30875-0.8048-0.21663-1.4673-0.50361-1.9874-0.86105l1.1188-2.7946c0.4908 0.31411 1.0403 0.56867 1.6488 0.76363 0.6085 0.18414 1.1924 0.27625 1.7518 0.27625 0.4809 0 0.8244-0.0487 1.0305-0.14623 0.2061-0.10831 0.3092-0.26538 0.3092-0.47118 0-0.23829-0.1374-0.41704-0.4122-0.53619-0.265-0.11915-0.7066-0.24906-1.3249-0.38987-0.7949-0.18414-1.4574-0.37911-1.9874-0.5849-0.53-0.21663-0.9913-0.56329-1.3839-1.0399-0.3925-0.48741-0.5888-1.1426-0.5888-1.9658 0-0.71488 0.1816-1.3648 0.5447-1.9497s0.9029-1.0452 1.6193-1.3809c0.7263-0.33578 1.6047-0.50369 2.6352-0.50369zm23.922 0c1.109 0 2.1051 0.25456 2.9884 0.76363 0.8833 0.50908 1.5753 1.2185 2.0758 2.1284 0.5005 0.89901 0.7507 1.9171 0.7507 3.0544s-0.2502 2.1609-0.7507 3.0707c-0.5005 0.89902-1.1925 1.6031-2.0758 2.1122-0.8833 0.50907-1.8794 0.76363-2.9884 0.76363s-2.1052-0.25456-2.9885-0.76363c-0.8832-0.50908-1.5751-1.2132-2.0756-2.1122-0.5005-0.90983-0.7509-1.9334-0.7509-3.0707s0.2504-2.1554 0.7509-3.0544c0.5005-0.90984 1.1924-1.6193 2.0756-2.1284 0.8833-0.50907 1.8795-0.76363 2.9885-0.76363zm-17.585 0.25994h9.51v2.9732h-3.0179v8.3998h-3.4742v-8.3998h-3.0179zm26.575 0h4.9611c0.952 0 1.7813 0.17329 2.4879 0.5199 0.7066 0.3466 1.2513 0.84487 1.6341 1.4948 0.3827 0.64989 0.5741 1.4081 0.5741 2.2746 0 0.86651-0.1914 1.6247-0.5741 2.2746-0.3828 0.64988-0.9275 1.1482-1.6341 1.4948-0.7066 0.34661-1.5359 0.5199-2.4879 0.5199h-1.4868v2.7946h-3.4743zm-8.9896 2.8433c-0.4318 0-0.8244 0.11906-1.1777 0.35736-0.3435 0.22746-0.6183 0.55781-0.8244 0.99107-0.2061 0.42243-0.3091 0.92069-0.3091 1.4948 0 0.57406 0.103 1.0777 0.3091 1.511 0.2061 0.42243 0.4809 0.75288 0.8244 0.99117 0.3533 0.22746 0.7459 0.34116 1.1777 0.34116s0.8195-0.1137 1.163-0.34116c0.3533-0.23829 0.633-0.56874 0.8391-0.99117 0.2061-0.43326 0.3092-0.9369 0.3092-1.511 0-0.57407-0.1031-1.0723-0.3092-1.4948-0.2061-0.43326-0.4858-0.76361-0.8391-0.99107-0.3435-0.2383-0.7312-0.35736-1.163-0.35736zm12.464 0.11372v2.6645h1.2659c0.4711 0 0.8245-0.1137 1.06-0.34116 0.2356-0.23829 0.3533-0.56865 0.3533-0.99107 0-0.42243-0.1177-0.74741-0.3533-0.97487-0.2355-0.23829-0.5889-0.35736-1.06-0.35736z" style="fill:url(#radialGradient4983)"/>
  </clipPath>
  <radialGradient id="radialGradient4983" xlink:href="#linearGradient12673" gradientUnits="userSpaceOnUse" cy="644.86" cx="1252.3" gradientTransform="translate(0 .000049978)" r="44.78"/>
  <filter id="filter4985" style="color-interpolation-filters:sRGB" height="1.1203" width="1.03" y="-.060157" x="-.014990">
   <feGaussianBlur id="feGaussianBlur4987" stdDeviation="0.58453098"/>
  </filter>
 </defs>
 <ellipse id="ellipse4935" style="fill:#fff" rx="857.97" ry="857.97" cy="896" cx="896"/>
 <path id="path14261" style="filter:url(#filter4985);font-variant-numeric:normal;font-variant-ligatures:normal;font-variant-caps:normal;font-feature-settings:normal;fill:#060708" d="m1013 428.63c-2.0658 0-3.8273 0.33663-5.2832 1.0098-1.4362 0.67314-2.5181 1.595-3.2461 2.7676-0.7279 1.1726-1.0918 2.4751-1.0918 3.9082 0 1.6503 0.3927 2.9643 1.1797 3.9414 0.3665 0.44487 0.7653 0.82828 1.1914 1.1602-0.7431-0.96799-1.1211-2.248-1.1211-3.8516 0-1.4331 0.3639-2.7356 1.0918-3.9082 0.728-1.1726 1.8099-2.0944 3.2461-2.7676 1.4559-0.67313 3.2174-1.0098 5.2832-1.0098 1.4166 0 2.8026 0.17406 4.1602 0.52148 0.7863 0.18597 1.5121 0.43051 2.1894 0.72266l0.1914-0.50781c-1.0427-0.65142-2.2536-1.1391-3.6308-1.4648-1.3576-0.34742-2.7436-0.52148-4.1602-0.52148zm47.957 0c-2.2233 0-4.2215 0.51069-5.9922 1.5312-1.7708 1.0206-3.1568 2.4416-4.1602 4.2656-1.0034 1.8023-1.5059 3.8431-1.5059 6.123 0 2.28 0.5025 4.3323 1.5059 6.1562 0.6643 1.1931 1.4995 2.212 2.5 3.0625-0.467-0.55255-0.8847-1.1563-1.25-1.8125-1.0034-1.824-1.5059-3.8763-1.5059-6.1562 0-2.28 0.5025-4.3208 1.5059-6.123 1.0034-1.824 2.3894-3.2451 4.1602-4.2656 1.7707-1.0206 3.7689-1.5312 5.9922-1.5312 2.2232 0 4.2195 0.51069 5.9902 1.5312 0.5924 0.34145 1.138 0.73072 1.6445 1.1621-0.812-0.96436-1.7768-1.7679-2.8945-2.4121-1.7707-1.0206-3.767-1.5312-5.9902-1.5312zm-35.254 0.52148v6.7952h1.25v-5.5452h17.814v-1.25zm52.753 0v23.74h1.25v-22.49h10.468c1.9085 0 3.5698 0.34617 4.9864 1.041 0.5457 0.26768 1.0291 0.59521 1.4785 0.95312-0.7117-0.91929-1.6172-1.658-2.7285-2.2031-1.4166-0.69485-3.0779-1.041-4.9864-1.041zm-46.702 7.209v16.949h1.25v-16.95zm59.356 0.21093c0.1328 0.33918 0.2051 0.72864 0.2051 1.1777 0 0.84684-0.2368 1.5086-0.709 1.9863-0.4722 0.45599-1.1806 0.68554-2.125 0.68554h-1.2871v1.25h2.5371c0.9444 0 1.6528-0.22955 2.125-0.68554 0.4722-0.47771 0.709-1.1395 0.709-1.9863 0-0.84684-0.2368-1.4971-0.709-1.9531-0.2024-0.20476-0.4569-0.35761-0.7461-0.47461zm-26.561 0.25586c0.1524 0.22537 0.2967 0.46329 0.4219 0.72657 0.4132 0.84684 0.6192 1.8452 0.6192 2.9961 0 1.1508-0.206 2.1607-0.6192 3.0293-0.4131 0.84684-0.9753 1.5086-1.6836 1.9863-0.6886 0.456-1.4644 0.68555-2.33 0.68555-0.8448 0-1.6138-0.22209-2.3086-0.65625 0.3386 0.48855 0.7339 0.89928 1.1972 1.2207 0.7083 0.456 1.4957 0.68555 2.3614 0.68555 0.8656 0 1.6414-0.22955 2.33-0.68555 0.7083-0.4777 1.2705-1.1395 1.6836-1.9863 0.4132-0.86856 0.6192-1.8785 0.6192-3.0293s-0.206-2.1492-0.6192-2.9961c-0.4107-0.86332-0.9696-1.5208-1.6719-1.9766zm-53.037 0.28907c-0.0008 0.0204-0.01 0.0378-0.01 0.0586 0 0.45599 0.2657 0.80412 0.7969 1.043 0.5312 0.21714 1.4071 0.45623 2.627 0.7168 1.5739 0.3257 2.9022 0.70439 3.9843 1.1387 0.5928 0.226 1.1364 0.54274 1.6407 0.93164-0.032-0.0406-0.055-0.0895-0.088-0.12891-0.787-0.95541-1.7207-1.6402-2.8028-2.0527-1.0821-0.43428-2.4104-0.81297-3.9843-1.1387-0.9539-0.20376-1.6333-0.39116-2.1661-0.56836zm-6.2148 7.1991-2.2441 5.8106c0.4247 0.29185 0.9103 0.55381 1.4296 0.79883l2.0645-5.3594c0.9837 0.6297 2.0849 1.1404 3.3047 1.5312 1.2198 0.36914 2.3902 0.55273 3.5117 0.55273 0.9641 0 1.6532-0.0975 2.0664-0.29297 0.4132-0.21713 0.6191-0.53274 0.6191-0.94531 0.0001-0.4777-0.2752-0.83536-0.8261-1.0742-0.1069-0.048-0.2922-0.10057-0.4278-0.15039-0.01 0.39937-0.2111 0.70753-0.6152 0.91992-0.4132 0.19543-1.1023 0.29297-2.0664 0.29297-1.1215 0-2.2919-0.18359-3.5117-0.55273-1.2198-0.39085-2.321-0.90155-3.3047-1.5312z" transform="matrix(10.107 0 0 10.107 -9726.3 -3561)"/>
 <path id="circle14235" style="fill:url(#radialGradient14534)" d="m896 0a896 896 0 0 0 -896 896 896 896 0 0 0 896 896 896 896 0 0 0 896 -896 896 896 0 0 0 -896 -896zm-376.24 777.02c14.139 0 27.982 1.7336 41.531 5.2011 13.746 3.2509 25.823 8.1272 36.23 14.629l-20.912 55.59c-20.226-11.27-39.373-16.904-57.439-16.904-17.87 0-26.805 4.7669-26.805 14.303 0 4.5512 2.6511 8.0184 7.9531 10.402 5.302 2.1672 14.042 4.5516 26.217 7.1523 15.71 3.2509 28.963 7.0444 39.764 11.379 10.8 4.1178 20.128 10.945 27.982 20.48 8.0512 9.5358 12.078 22.539 12.078 39.01 0 14.304-3.6327 27.307-10.898 39.01-7.2657 11.486-18.164 20.698-32.695 27.633-14.335 6.7184-31.813 10.078-52.432 10.078-17.084 0-33.775-2.06-50.074-6.1777-16.102-4.3345-29.358-10.077-39.766-17.228l22.387-55.916c9.8185 6.285 20.815 11.378 32.99 15.279 12.175 3.6843 23.858 5.5273 35.051 5.5273 9.6222 0 16.495-0.9752 20.619-2.9257 4.1238-2.1673 6.1856-5.31 6.1856-9.4278 0-4.7679-2.7477-8.3445-8.2461-10.728-5.302-2.384-14.138-4.9834-26.51-7.8008-15.906-3.6843-29.162-7.5854-39.766-11.703-10.604-4.3345-19.835-11.271-27.689-20.807-7.8548-9.7526-11.781-22.863-11.781-39.334 0-14.304 3.6327-27.309 10.898-39.012 7.2657-11.703 18.065-20.912 32.4-27.631 14.531-6.7184 32.108-10.078 52.727-10.078zm478.65 0c22.19 0 42.122 5.0933 59.795 15.279s31.518 24.381 41.533 42.586c10.015 17.988 15.022 38.359 15.022 61.115s-5.0066 43.237-15.022 61.441c-10.015 17.988-23.86 32.076-41.533 42.262s-37.605 15.279-59.795 15.279-42.122-5.0933-59.795-15.279c-17.68-10.18-31.52-24.27-41.54-42.26-10.01-18.2-15.02-38.68-15.02-61.44 0-22.756 5.0085-43.127 15.023-61.115 10.015-18.205 23.858-32.4 41.531-42.586s37.605-15.279 59.795-15.279zm-351.85 5.2011h190.28v59.49h-60.38v168.07h-69.52v-168.09h-60.385zm531.72 0h99.266c19.048 0 35.641 3.4672 49.779 10.402 14.139 6.9351 25.037 16.905 32.695 29.908 7.6584 13.003 11.488 28.174 11.488 45.512s-3.8299 32.508-11.488 45.512c-7.6585 13.003-18.557 22.973-32.695 29.908-14.139 6.9352-30.731 10.402-49.779 10.402h-29.75v55.916h-69.516zm-179.87 56.891c-8.6403 0-16.495 2.3824-23.564 7.1504-6.873 4.5512-12.37 11.161-16.494 19.83-4.1238 8.4523-6.1855 18.422-6.1855 29.908s2.0618 21.564 6.1855 30.232c4.1238 8.4522 9.6212 15.064 16.494 19.832 7.0694 4.5512 14.924 6.8262 23.564 6.8262 8.6403 0 16.397-2.275 23.27-6.8262 7.0693-4.7679 12.667-11.38 16.791-19.832 4.1238-8.669 6.1856-18.746 6.1855-30.232 0-11.486-2.0617-21.456-6.1855-29.908-4.1238-8.6689-9.7217-15.279-16.791-19.83-6.873-4.768-14.629-7.1504-23.27-7.1504zm249.39 2.2754v53.312h25.33c9.4257 0 16.496-2.275 21.209-6.8262 4.7129-4.7679 7.0684-11.378 7.0684-19.83 0-8.4522-2.3555-14.955-7.0684-19.506-4.7129-4.7679-11.783-7.1503-21.209-7.1503z"/>
 <circle id="circle14237" style="opacity:0.196;fill:url(#radialGradient14536)" clip-path="url(#clipPath4979)" transform="matrix(20.009 0 0 20.009 -24161 -12007)" cy="621.64" cx="1237.9" r="44.78"/>
 <path id="path14241" style="filter:url(#filter9758-9);fill-opacity:.87006" d="m960 455.44a44.78 44.78 0 0 0 -44.781 44.779 44.78 44.78 0 0 0 16.123 34.395 44.78 44.78 0 0 1 -15.021 -33.402 44.78 44.78 0 0 1 44.781 -44.781 44.78 44.78 0 0 1 28.646 10.379 44.78 44.78 0 0 0 -29.75 -11.37z" clip-path="url(#clipPath4964)" transform="matrix(-20.009 0 0 -20.009 20104 10905)"/>
 <ellipse id="circle14245" style="stroke-linejoin:round;stroke:url(#linearGradient14538);stroke-linecap:round;stroke-width:60.026;fill:none" rx="778.16" ry="778.16" cy="896" cx="896"/>
 <ellipse id="circle14247" style="stroke-linejoin:round;stroke:url(#linearGradient14538);stroke-linecap:round;stroke-width:60.026;fill:none" rx="778.16" ry="778.16" cy="896" cx="896"/>
 <circle id="circle14249" style="stroke-linejoin:round;filter:url(#filter10046-8);stroke:url(#linearGradient14542);stroke-linecap:round;stroke-width:0.75;fill:none" clip-path="url(#clipPath10064-4)" transform="matrix(20.009 0 0 20.009 -18312 -1e4)" cy="544.08" cx="959.62" r="39.014"/>
 <ellipse id="ellipse4933" style="fill-opacity:0" rx="896" ry="896" cy="896" cx="896"/>
</svg>
